<svg xmlns="http://www.w3.org/2000/svg" width="1800" height="1531.29" viewBox="0 0 1800 1531.29"><g id="Layer_2" data-name="Layer 2"><g id="LAYERED"><g id="Isometric_Distribution_Building"><g id="Side"><polygon id="Wall_Side" points="110.17 185.07 813.08 593.47 813.08 1154.31 110.17 752.15 110.17 185.07" fill="#b3b3ff"/><polygon id="Wall_Above" points="110.17 749.26 0 812.36 664.93 1196.54 774.57 1132.49 110.17 749.26" fill="#a6a6ff"/><polygon id="Wall_Down_Side" points="0 812.82 664.93 1196.54 664.93 1416.73 0 1025.28 0 812.82" fill="#b3b3ff"/><polygon id="Wall_Down_Side-2" data-name="Wall_Down_Side" points="770.13 1130.25 1072.09 1306.79 1072.09 1531.29 770.13 1350.64 770.13 1130.25" fill="#a6a6ff"/><polygon id="Wall_Front" points="664.93 1196.54 664.93 1416.73 770.13 1350.64 770.13 1134.7 664.93 1196.54" fill="#99f"/><g id="Windows"><g id="Window_1"><polygon id="Window_Frame" points="237.05 324.05 237.05 408.33 173.24 371.41 173.24 287.59 237.05 324.05" fill="#adadf2"/><polygon id="Window" points="234.11 327.44 234.11 401.53 176.18 368.07 176.18 294.38 234.11 327.44" fill="#d9d9ff"/><polygon id="Window_Frame_Down" points="180.47 363.64 176.03 368.07 234.11 401.68 234.11 394.6 180.47 363.64" fill="#a6a6ff"/><polygon id="Window_Frame_Side" points="180.47 296.75 180.47 363.64 176.03 368.07 176.03 294.24 180.47 296.75" fill="#99f"/></g><g id="Window_2"><polygon id="Window_Frame-2" data-name="Window_Frame" points="237.05 423.14 237.05 507.42 173.24 470.51 173.24 386.69 237.05 423.14" fill="#adadf2"/><polygon id="Window-2" data-name="Window" points="234.11 426.54 234.11 500.63 176.18 467.17 176.18 393.47 234.11 426.54" fill="#d9d9ff"/><polygon id="Window_Frame_Down-2" data-name="Window_Frame_Down" points="180.47 462.74 176.03 467.17 234.11 500.78 234.11 493.68 180.47 462.74" fill="#a6a6ff"/><polygon id="Window_Frame_Side-2" data-name="Window_Frame_Side" points="180.47 395.85 180.47 462.74 176.03 467.17 176.03 393.33 180.47 395.85" fill="#99f"/></g><g id="Window_3"><polygon id="Window_Frame-3" data-name="Window_Frame" points="237.05 522.24 237.05 606.52 173.24 569.61 173.24 485.79 237.05 522.24" fill="#adadf2"/><polygon id="Window-3" data-name="Window" points="234.11 525.64 234.11 599.73 176.18 566.26 176.18 492.58 234.11 525.64" fill="#d9d9ff"/><polygon id="Window_Frame_Down-3" data-name="Window_Frame_Down" points="180.47 561.83 176.03 566.26 234.11 599.88 234.11 592.78 180.47 561.83" fill="#a6a6ff"/><polygon id="Window_Frame_Side-3" data-name="Window_Frame_Side" points="180.47 494.94 180.47 561.83 176.03 566.26 176.03 492.44 180.47 494.94" fill="#99f"/></g><g id="Window_4"><polygon id="Window_Frame-4" data-name="Window_Frame" points="237.05 621.34 237.05 705.61 173.24 668.71 173.24 584.88 237.05 621.34" fill="#adadf2"/><polygon id="Window-4" data-name="Window" points="234.11 624.73 234.11 698.82 176.18 665.36 176.18 591.67 234.11 624.73" fill="#d9d9ff"/><polygon id="Window_Frame_Down-4" data-name="Window_Frame_Down" points="180.47 660.93 176.03 665.36 234.11 698.98 234.11 691.88 180.47 660.93" fill="#a6a6ff"/><polygon id="Window_Frame_Side-4" data-name="Window_Frame_Side" points="180.47 594.03 180.47 660.93 176.03 665.36 176.03 591.52 180.47 594.03" fill="#99f"/></g><g id="Window_5"><polygon id="Window_Frame-5" data-name="Window_Frame" points="237.05 720.43 237.05 804.71 173.24 767.79 173.24 683.97 237.05 720.43" fill="#adadf2"/><polygon id="Window-5" data-name="Window" points="234.11 723.83 234.11 797.92 176.18 764.45 176.18 690.76 234.11 723.83" fill="#d9d9ff"/><polygon id="Window_Frame_Down-5" data-name="Window_Frame_Down" points="180.47 760.02 176.03 764.45 234.11 798.07 234.11 790.97 180.47 760.02" fill="#a6a6ff"/><polygon id="Window_Frame_Side-5" data-name="Window_Frame_Side" points="180.47 693.13 180.47 760.02 176.03 764.45 176.03 690.62 180.47 693.13" fill="#99f"/></g><g id="Window_6"><polygon id="Window_Frame-6" data-name="Window_Frame" points="304.08 362.59 304.08 446.87 255.41 418.69 255.41 334.86 304.08 362.59" fill="#adadf2"/><polygon id="Window-6" data-name="Window" points="301.15 365.99 301.15 440.08 258.35 415.35 258.35 341.65 301.15 365.99" fill="#d9d9ff"/><polygon id="Window_Frame_Down-6" data-name="Window_Frame_Down" points="262.63 410.91 258.19 415.35 301.15 440.24 301.15 433.13 262.63 410.91" fill="#a6a6ff"/><polygon id="Window_Frame_Side-6" data-name="Window_Frame_Side" points="262.63 344.02 262.63 410.91 258.19 415.35 258.19 341.5 262.63 344.02" fill="#99f"/></g><g id="Window_7"><polygon id="Window_Frame-7" data-name="Window_Frame" points="304.08 462.05 304.08 546.34 255.41 518.15 255.41 434.32 304.08 462.05" fill="#adadf2"/><polygon id="Window-7" data-name="Window" points="301.15 465.45 301.15 539.54 258.35 514.8 258.35 441.12 301.15 465.45" fill="#d9d9ff"/><polygon id="Window_Frame_Down-7" data-name="Window_Frame_Down" points="262.63 510.38 258.19 514.8 301.15 539.7 301.15 532.6 262.63 510.38" fill="#a6a6ff"/><polygon id="Window_Frame_Side-7" data-name="Window_Frame_Side" points="262.63 443.48 262.63 510.38 258.19 514.8 258.19 440.97 262.63 443.48" fill="#99f"/></g><g id="Window_8"><polygon id="Window_Frame-8" data-name="Window_Frame" points="304.08 561.16 304.08 645.43 255.41 617.25 255.41 533.42 304.08 561.16" fill="#adadf2"/><polygon id="Window-8" data-name="Window" points="301.15 564.55 301.15 638.64 258.35 613.9 258.35 540.22 301.15 564.55" fill="#d9d9ff"/><polygon id="Window_Frame_Down-8" data-name="Window_Frame_Down" points="262.63 609.47 258.19 613.9 301.15 638.8 301.15 631.69 262.63 609.47" fill="#a6a6ff"/><polygon id="Window_Frame_Side-8" data-name="Window_Frame_Side" points="262.63 542.58 262.63 609.47 258.19 613.9 258.19 540.07 262.63 542.58" fill="#99f"/></g><g id="Window_9"><polygon id="Window_Frame-9" data-name="Window_Frame" points="304.08 660.25 304.08 744.53 255.41 716.34 255.41 632.52 304.08 660.25" fill="#adadf2"/><polygon id="Window-9" data-name="Window" points="301.15 663.64 301.15 737.74 258.35 713 258.35 639.31 301.15 663.64" fill="#d9d9ff"/><polygon id="Window_Frame_Down-9" data-name="Window_Frame_Down" points="262.63 708.57 258.19 713 301.15 737.89 301.15 730.8 262.63 708.57" fill="#a6a6ff"/><polygon id="Window_Frame_Side-9" data-name="Window_Frame_Side" points="262.63 641.68 262.63 708.57 258.19 713 258.19 639.17 262.63 641.68" fill="#99f"/></g><g id="Window_10"><polygon id="Window_Frame-10" data-name="Window_Frame" points="304.08 759.35 304.08 843.63 255.41 815.44 255.41 731.62 304.08 759.35" fill="#adadf2"/><polygon id="Window-10" data-name="Window" points="301.15 762.74 301.15 836.84 258.35 812.1 258.35 738.4 301.15 762.74" fill="#d9d9ff"/><polygon id="Window_Frame_Down-10" data-name="Window_Frame_Down" points="262.63 807.66 258.19 812.1 301.15 836.98 301.15 829.89 262.63 807.66" fill="#a6a6ff"/><polygon id="Window_Frame_Side-10" data-name="Window_Frame_Side" points="262.63 740.77 262.63 807.66 258.19 812.1 258.19 738.27 262.63 740.77" fill="#99f"/></g><g id="Window_11"><polygon id="Window_Frame-11" data-name="Window_Frame" points="369.1 399.32 369.1 483.61 320.43 455.42 320.43 371.59 369.1 399.32" fill="#adadf2"/><polygon id="Window-11" data-name="Window" points="366.17 402.72 366.17 476.81 323.37 452.06 323.37 378.38 366.17 402.72" fill="#d9d9ff"/><polygon id="Window_Frame_Down-11" data-name="Window_Frame_Down" points="327.66 447.64 323.21 452.06 366.17 476.96 366.17 469.86 327.66 447.64" fill="#a6a6ff"/><polygon id="Window_Frame_Side-11" data-name="Window_Frame_Side" points="327.66 380.75 327.66 447.64 323.21 452.06 323.21 378.24 327.66 380.75" fill="#99f"/></g><g id="Window_12"><polygon id="Window_Frame-12" data-name="Window_Frame" points="369.1 498.6 369.1 582.88 320.43 554.69 320.43 470.87 369.1 498.6" fill="#adadf2"/><polygon id="Window-12" data-name="Window" points="366.17 502 366.17 576.08 323.37 551.35 323.37 477.67 366.17 502" fill="#d9d9ff"/><polygon id="Window_Frame_Down-12" data-name="Window_Frame_Down" points="327.66 546.92 323.21 551.35 366.17 576.25 366.17 569.14 327.66 546.92" fill="#a6a6ff"/><polygon id="Window_Frame_Side-12" data-name="Window_Frame_Side" points="327.66 480.02 327.66 546.92 323.21 551.35 323.21 477.52 327.66 480.02" fill="#99f"/></g><g id="Window_13"><polygon id="Window_Frame-13" data-name="Window_Frame" points="369.1 597.7 369.1 681.98 320.43 653.79 320.43 569.97 369.1 597.7" fill="#adadf2"/><polygon id="Window-13" data-name="Window" points="366.17 601.1 366.17 675.2 323.37 650.45 323.37 576.76 366.17 601.1" fill="#d9d9ff"/><polygon id="Window_Frame_Down-13" data-name="Window_Frame_Down" points="327.66 646.02 323.21 650.45 366.17 675.34 366.17 668.25 327.66 646.02" fill="#a6a6ff"/><polygon id="Window_Frame_Side-13" data-name="Window_Frame_Side" points="327.66 579.13 327.66 646.02 323.21 650.45 323.21 576.62 327.66 579.13" fill="#99f"/></g><g id="Window_14"><polygon id="Window_Frame-14" data-name="Window_Frame" points="369.1 696.79 369.1 781.07 320.43 752.89 320.43 669.07 369.1 696.79" fill="#adadf2"/><polygon id="Window-14" data-name="Window" points="366.17 700.19 366.17 774.28 323.37 749.54 323.37 675.85 366.17 700.19" fill="#d9d9ff"/><polygon id="Window_Frame_Down-14" data-name="Window_Frame_Down" points="327.66 745.11 323.21 749.54 366.17 774.43 366.17 767.34 327.66 745.11" fill="#a6a6ff"/><polygon id="Window_Frame_Side-14" data-name="Window_Frame_Side" points="327.66 678.22 327.66 745.11 323.21 749.54 323.21 675.71 327.66 678.22" fill="#99f"/></g><g id="Window_15"><polygon id="Window_Frame-15" data-name="Window_Frame" points="369.1 795.89 369.1 880.18 320.43 851.99 320.43 768.17 369.1 795.89" fill="#adadf2"/><polygon id="Window-15" data-name="Window" points="366.17 799.28 366.17 873.38 323.37 848.65 323.37 774.95 366.17 799.28" fill="#d9d9ff"/><polygon id="Window_Frame_Down-15" data-name="Window_Frame_Down" points="327.66 844.21 323.21 848.65 366.17 873.54 366.17 866.44 327.66 844.21" fill="#a6a6ff"/><polygon id="Window_Frame_Side-15" data-name="Window_Frame_Side" points="327.66 777.33 327.66 844.21 323.21 848.65 323.21 774.81 327.66 777.33" fill="#99f"/></g><g id="Window_16"><polygon id="Window_Frame-16" data-name="Window_Frame" points="432.99 436.9 432.99 521.19 384.32 492.99 384.32 409.17 432.99 436.9" fill="#adadf2"/><polygon id="Window-16" data-name="Window" points="430.06 440.3 430.06 514.39 387.26 489.65 387.26 415.96 430.06 440.3" fill="#d9d9ff"/><polygon id="Window_Frame_Down-16" data-name="Window_Frame_Down" points="391.54 485.22 387.1 489.65 430.06 514.54 430.06 507.45 391.54 485.22" fill="#a6a6ff"/><polygon id="Window_Frame_Side-16" data-name="Window_Frame_Side" points="391.54 418.33 391.54 485.22 387.1 489.65 387.1 415.82 391.54 418.33" fill="#99f"/></g><g id="Window_17"><polygon id="Window_Frame-17" data-name="Window_Frame" points="432.99 536.18 432.99 620.46 384.32 592.27 384.32 508.45 432.99 536.18" fill="#adadf2"/><polygon id="Window-17" data-name="Window" points="430.06 539.58 430.06 613.67 387.26 588.93 387.26 515.25 430.06 539.58" fill="#d9d9ff"/><polygon id="Window_Frame_Down-17" data-name="Window_Frame_Down" points="391.54 584.5 387.1 588.93 430.06 613.83 430.06 606.73 391.54 584.5" fill="#a6a6ff"/><polygon id="Window_Frame_Side-17" data-name="Window_Frame_Side" points="391.54 517.61 391.54 584.5 387.1 588.93 387.1 515.1 391.54 517.61" fill="#99f"/></g><g id="Window_18"><polygon id="Window_Frame-18" data-name="Window_Frame" points="432.99 635.29 432.99 719.56 384.32 691.38 384.32 607.55 432.99 635.29" fill="#adadf2"/><polygon id="Window-18" data-name="Window" points="430.06 638.68 430.06 712.78 387.26 688.04 387.26 614.34 430.06 638.68" fill="#d9d9ff"/><polygon id="Window_Frame_Down-18" data-name="Window_Frame_Down" points="391.54 683.6 387.1 688.04 430.06 712.92 430.06 705.83 391.54 683.6" fill="#a6a6ff"/><polygon id="Window_Frame_Side-18" data-name="Window_Frame_Side" points="391.54 616.71 391.54 683.6 387.1 688.04 387.1 614.2 391.54 616.71" fill="#99f"/></g><g id="Window_19"><polygon id="Window_Frame-19" data-name="Window_Frame" points="432.99 734.38 432.99 818.65 384.32 790.47 384.32 706.64 432.99 734.38" fill="#adadf2"/><polygon id="Window-19" data-name="Window" points="430.06 737.77 430.06 811.87 387.26 787.13 387.26 713.44 430.06 737.77" fill="#d9d9ff"/><polygon id="Window_Frame_Down-19" data-name="Window_Frame_Down" points="391.54 782.7 387.1 787.13 430.06 812.02 430.06 804.92 391.54 782.7" fill="#a6a6ff"/><polygon id="Window_Frame_Side-19" data-name="Window_Frame_Side" points="391.54 715.8 391.54 782.7 387.1 787.13 387.1 713.29 391.54 715.8" fill="#99f"/></g><g id="Window_20"><polygon id="Window_Frame-20" data-name="Window_Frame" points="432.99 833.48 432.99 917.76 384.32 889.57 384.32 805.75 432.99 833.48" fill="#adadf2"/><polygon id="Window-20" data-name="Window" points="430.06 836.88 430.06 910.97 387.26 886.23 387.26 812.54 430.06 836.88" fill="#d9d9ff"/><polygon id="Window_Frame_Down-20" data-name="Window_Frame_Down" points="391.54 881.79 387.1 886.23 430.06 911.12 430.06 904.03 391.54 881.79" fill="#a6a6ff"/><polygon id="Window_Frame_Side-20" data-name="Window_Frame_Side" points="391.54 814.9 391.54 881.79 387.1 886.23 387.1 812.4 391.54 814.9" fill="#99f"/></g><g id="Window_21"><polygon id="Window_Frame-21" data-name="Window_Frame" points="497.37 474.78 497.37 559.06 448.7 530.88 448.7 447.05 497.37 474.78" fill="#adadf2"/><polygon id="Window-21" data-name="Window" points="494.44 478.18 494.44 552.28 451.64 527.54 451.64 453.84 494.44 478.18" fill="#d9d9ff"/><polygon id="Window_Frame_Down-21" data-name="Window_Frame_Down" points="455.92 523.09 451.48 527.54 494.44 552.42 494.44 545.32 455.92 523.09" fill="#a6a6ff"/><polygon id="Window_Frame_Side-21" data-name="Window_Frame_Side" points="455.92 456.21 455.92 523.09 451.48 527.54 451.48 453.7 455.92 456.21" fill="#99f"/></g><g id="Window_22"><polygon id="Window_Frame-22" data-name="Window_Frame" points="497.37 574.07 497.37 658.35 448.7 630.16 448.7 546.34 497.37 574.07" fill="#adadf2"/><polygon id="Window-22" data-name="Window" points="494.44 577.46 494.44 651.56 451.64 626.82 451.64 553.12 494.44 577.46" fill="#d9d9ff"/><polygon id="Window_Frame_Down-22" data-name="Window_Frame_Down" points="455.92 622.38 451.48 626.82 494.44 651.71 494.44 644.61 455.92 622.38" fill="#a6a6ff"/><polygon id="Window_Frame_Side-22" data-name="Window_Frame_Side" points="455.92 555.49 455.92 622.38 451.48 626.82 451.48 552.98 455.92 555.49" fill="#99f"/></g><g id="Window_23"><polygon id="Window_Frame-23" data-name="Window_Frame" points="497.37 673.16 497.37 757.44 448.7 729.25 448.7 645.42 497.37 673.16" fill="#adadf2"/><polygon id="Window-23" data-name="Window" points="494.44 676.55 494.44 750.65 451.64 725.91 451.64 652.22 494.44 676.55" fill="#d9d9ff"/><polygon id="Window_Frame_Down-23" data-name="Window_Frame_Down" points="455.92 721.48 451.48 725.91 494.44 750.79 494.44 743.7 455.92 721.48" fill="#a6a6ff"/><polygon id="Window_Frame_Side-23" data-name="Window_Frame_Side" points="455.92 654.59 455.92 721.48 451.48 725.91 451.48 652.07 455.92 654.59" fill="#99f"/></g><g id="Window_24"><polygon id="Window_Frame-24" data-name="Window_Frame" points="497.37 772.26 497.37 856.54 448.7 828.36 448.7 744.53 497.37 772.26" fill="#adadf2"/><polygon id="Window-24" data-name="Window" points="494.44 775.66 494.44 849.75 451.64 825.01 451.64 751.32 494.44 775.66" fill="#d9d9ff"/><polygon id="Window_Frame_Down-24" data-name="Window_Frame_Down" points="455.92 820.58 451.48 825.01 494.44 849.91 494.44 842.8 455.92 820.58" fill="#a6a6ff"/><polygon id="Window_Frame_Side-24" data-name="Window_Frame_Side" points="455.92 753.69 455.92 820.58 451.48 825.01 451.48 751.18 455.92 753.69" fill="#99f"/></g><g id="Window_25"><polygon id="Window_Frame-25" data-name="Window_Frame" points="497.37 871.34 497.37 955.63 448.7 927.44 448.7 843.62 497.37 871.34" fill="#adadf2"/><polygon id="Window-25" data-name="Window" points="494.44 874.75 494.44 948.84 451.64 924.09 451.64 850.4 494.44 874.75" fill="#d9d9ff"/><polygon id="Window_Frame_Down-25" data-name="Window_Frame_Down" points="455.92 919.67 451.48 924.09 494.44 948.99 494.44 941.9 455.92 919.67" fill="#a6a6ff"/><polygon id="Window_Frame_Side-25" data-name="Window_Frame_Side" points="455.92 852.77 455.92 919.67 451.48 924.09 451.48 850.27 455.92 852.77" fill="#99f"/></g><g id="Window_26"><polygon id="Window_Frame-26" data-name="Window_Frame" points="561.88 511.57 561.88 595.85 513.21 567.67 513.21 483.84 561.88 511.57" fill="#adadf2"/><polygon id="Window-26" data-name="Window" points="558.94 514.97 558.94 589.06 516.14 564.32 516.14 490.63 558.94 514.97" fill="#d9d9ff"/><polygon id="Window_Frame_Down-26" data-name="Window_Frame_Down" points="520.43 559.89 515.99 564.32 558.94 589.21 558.94 582.12 520.43 559.89" fill="#a6a6ff"/><polygon id="Window_Frame_Side-26" data-name="Window_Frame_Side" points="520.43 493 520.43 559.89 515.99 564.32 515.99 490.49 520.43 493" fill="#99f"/></g><g id="Window_27"><polygon id="Window_Frame-27" data-name="Window_Frame" points="561.88 610.85 561.88 695.14 513.21 666.95 513.21 583.13 561.88 610.85" fill="#adadf2"/><polygon id="Window-27" data-name="Window" points="558.94 614.25 558.94 688.34 516.14 663.6 516.14 589.91 558.94 614.25" fill="#d9d9ff"/><polygon id="Window_Frame_Down-27" data-name="Window_Frame_Down" points="520.43 659.17 515.99 663.6 558.94 688.5 558.94 681.39 520.43 659.17" fill="#a6a6ff"/><polygon id="Window_Frame_Side-27" data-name="Window_Frame_Side" points="520.43 592.27 520.43 659.17 515.99 663.6 515.99 589.77 520.43 592.27" fill="#99f"/></g><g id="Window_28"><polygon id="Window_Frame-28" data-name="Window_Frame" points="561.88 709.95 561.88 794.23 513.21 766.04 513.21 682.23 561.88 709.95" fill="#adadf2"/><polygon id="Window-28" data-name="Window" points="558.94 713.36 558.94 787.45 516.14 762.7 516.14 689.02 558.94 713.36" fill="#d9d9ff"/><polygon id="Window_Frame_Down-28" data-name="Window_Frame_Down" points="520.43 758.28 515.99 762.7 558.94 787.6 558.94 780.49 520.43 758.28" fill="#a6a6ff"/><polygon id="Window_Frame_Side-28" data-name="Window_Frame_Side" points="520.43 691.38 520.43 758.28 515.99 762.7 515.99 688.88 520.43 691.38" fill="#99f"/></g><g id="Window_29"><polygon id="Window_Frame-29" data-name="Window_Frame" points="561.88 809.05 561.88 893.33 513.21 865.15 513.21 781.33 561.88 809.05" fill="#adadf2"/><polygon id="Window-29" data-name="Window" points="558.94 812.46 558.94 886.54 516.14 861.8 516.14 788.12 558.94 812.46" fill="#d9d9ff"/><polygon id="Window_Frame_Down-29" data-name="Window_Frame_Down" points="520.43 857.38 515.99 861.8 558.94 886.7 558.94 879.6 520.43 857.38" fill="#a6a6ff"/><polygon id="Window_Frame_Side-29" data-name="Window_Frame_Side" points="520.43 790.48 520.43 857.38 515.99 861.8 515.99 787.98 520.43 790.48" fill="#99f"/></g><g id="Window_30"><polygon id="Window_Frame-30" data-name="Window_Frame" points="561.88 908.14 561.88 992.42 513.21 964.24 513.21 880.41 561.88 908.14" fill="#adadf2"/><polygon id="Window-30" data-name="Window" points="558.94 911.54 558.94 985.63 516.14 960.89 516.14 887.2 558.94 911.54" fill="#d9d9ff"/><polygon id="Window_Frame_Down-30" data-name="Window_Frame_Down" points="520.43 956.46 515.99 960.89 558.94 985.78 558.94 978.68 520.43 956.46" fill="#a6a6ff"/><polygon id="Window_Frame_Side-30" data-name="Window_Frame_Side" points="520.43 889.57 520.43 956.46 515.99 960.89 515.99 887.06 520.43 889.57" fill="#99f"/></g><g id="Window_31"><polygon id="Window_Frame-31" data-name="Window_Frame" points="625 548.11 625 632.39 576.33 604.21 576.33 520.38 625 548.11" fill="#adadf2"/><polygon id="Window-31" data-name="Window" points="622.07 551.51 622.07 625.6 579.27 600.87 579.27 527.17 622.07 551.51" fill="#d9d9ff"/><polygon id="Window_Frame_Down-31" data-name="Window_Frame_Down" points="583.55 596.43 579.11 600.87 622.07 625.75 622.07 618.65 583.55 596.43" fill="#a6a6ff"/><polygon id="Window_Frame_Side-31" data-name="Window_Frame_Side" points="583.55 529.53 583.55 596.43 579.11 600.87 579.11 527.02 583.55 529.53" fill="#99f"/></g><g id="Window_32"><polygon id="Window_Frame-32" data-name="Window_Frame" points="625 647.39 625 731.67 576.33 703.49 576.33 619.66 625 647.39" fill="#adadf2"/><polygon id="Window-32" data-name="Window" points="622.07 650.79 622.07 724.89 579.27 700.15 579.27 626.46 622.07 650.79" fill="#d9d9ff"/><polygon id="Window_Frame_Down-32" data-name="Window_Frame_Down" points="583.55 695.71 579.11 700.15 622.07 725.03 622.07 717.93 583.55 695.71" fill="#a6a6ff"/><polygon id="Window_Frame_Side-32" data-name="Window_Frame_Side" points="583.55 628.83 583.55 695.71 579.11 700.15 579.11 626.31 583.55 628.83" fill="#99f"/></g><g id="Window_33"><polygon id="Window_Frame-33" data-name="Window_Frame" points="625 746.49 625 830.77 576.33 802.59 576.33 718.76 625 746.49" fill="#adadf2"/><polygon id="Window-33" data-name="Window" points="622.07 749.9 622.07 823.98 579.27 799.25 579.27 725.55 622.07 749.9" fill="#d9d9ff"/><polygon id="Window_Frame_Down-33" data-name="Window_Frame_Down" points="583.55 794.81 579.11 799.25 622.07 824.13 622.07 817.04 583.55 794.81" fill="#a6a6ff"/><polygon id="Window_Frame_Side-33" data-name="Window_Frame_Side" points="583.55 727.92 583.55 794.81 579.11 799.25 579.11 725.41 583.55 727.92" fill="#99f"/></g><g id="Window_34"><polygon id="Window_Frame-34" data-name="Window_Frame" points="625 845.6 625 929.88 576.33 901.69 576.33 817.87 625 845.6" fill="#adadf2"/><polygon id="Window-34" data-name="Window" points="622.07 849 622.07 923.08 579.27 898.35 579.27 824.66 622.07 849" fill="#d9d9ff"/><polygon id="Window_Frame_Down-34" data-name="Window_Frame_Down" points="583.55 893.91 579.11 898.35 622.07 923.24 622.07 916.14 583.55 893.91" fill="#a6a6ff"/><polygon id="Window_Frame_Side-34" data-name="Window_Frame_Side" points="583.55 827.02 583.55 893.91 579.11 898.35 579.11 824.51 583.55 827.02" fill="#99f"/></g><g id="Window_35"><polygon id="Window_Frame-35" data-name="Window_Frame" points="625 944.68 625 1028.96 576.33 1000.78 576.33 916.95 625 944.68" fill="#adadf2"/><polygon id="Window-35" data-name="Window" points="622.07 948.07 622.07 1022.18 579.27 997.44 579.27 923.74 622.07 948.07" fill="#d9d9ff"/><polygon id="Window_Frame_Down-35" data-name="Window_Frame_Down" points="583.55 993 579.11 997.44 622.07 1022.32 622.07 1015.23 583.55 993" fill="#a6a6ff"/><polygon id="Window_Frame_Side-35" data-name="Window_Frame_Side" points="583.55 926.12 583.55 993 579.11 997.44 579.11 923.6 583.55 926.12" fill="#99f"/></g><g id="Window_36"><polygon id="Window_Frame-36" data-name="Window_Frame" points="690.33 586.71 690.33 670.99 641.66 642.81 641.66 558.98 690.33 586.71" fill="#adadf2"/><polygon id="Window-36" data-name="Window" points="687.39 590.1 687.39 664.21 644.6 639.46 644.6 565.77 687.39 590.1" fill="#d9d9ff"/><polygon id="Window_Frame_Down-36" data-name="Window_Frame_Down" points="648.88 635.02 644.44 639.46 687.39 664.35 687.39 657.25 648.88 635.02" fill="#a6a6ff"/><polygon id="Window_Frame_Side-36" data-name="Window_Frame_Side" points="648.88 568.13 648.88 635.02 644.44 639.46 644.44 565.63 648.88 568.13" fill="#99f"/></g><g id="Window_37"><polygon id="Window_Frame-37" data-name="Window_Frame" points="690.33 685.99 690.33 770.26 641.66 742.08 641.66 658.26 690.33 685.99" fill="#adadf2"/><polygon id="Window-37" data-name="Window" points="687.39 689.39 687.39 763.48 644.6 738.74 644.6 665.05 687.39 689.39" fill="#d9d9ff"/><polygon id="Window_Frame_Down-37" data-name="Window_Frame_Down" points="648.88 734.31 644.44 738.74 687.39 763.63 687.39 756.53 648.88 734.31" fill="#a6a6ff"/><polygon id="Window_Frame_Side-37" data-name="Window_Frame_Side" points="648.88 667.41 648.88 734.31 644.44 738.74 644.44 664.91 648.88 667.41" fill="#99f"/></g><g id="Window_38"><polygon id="Window_Frame-38" data-name="Window_Frame" points="690.33 785.09 690.33 869.37 641.66 841.18 641.66 757.36 690.33 785.09" fill="#adadf2"/><polygon id="Window-38" data-name="Window" points="687.39 788.49 687.39 862.58 644.6 837.84 644.6 764.16 687.39 788.49" fill="#d9d9ff"/><polygon id="Window_Frame_Down-38" data-name="Window_Frame_Down" points="648.88 833.41 644.44 837.84 687.39 862.73 687.39 855.63 648.88 833.41" fill="#a6a6ff"/><polygon id="Window_Frame_Side-38" data-name="Window_Frame_Side" points="648.88 766.51 648.88 833.41 644.44 837.84 644.44 764.01 648.88 766.51" fill="#99f"/></g><g id="Window_39"><polygon id="Window_Frame-39" data-name="Window_Frame" points="690.33 884.19 690.33 968.47 641.66 940.28 641.66 856.46 690.33 884.19" fill="#adadf2"/><polygon id="Window-39" data-name="Window" points="687.39 887.59 687.39 961.69 644.6 936.94 644.6 863.25 687.39 887.59" fill="#d9d9ff"/><polygon id="Window_Frame_Down-39" data-name="Window_Frame_Down" points="648.88 932.51 644.44 936.94 687.39 961.83 687.39 954.73 648.88 932.51" fill="#a6a6ff"/><polygon id="Window_Frame_Side-39" data-name="Window_Frame_Side" points="648.88 865.61 648.88 932.51 644.44 936.94 644.44 863.11 648.88 865.61" fill="#99f"/></g><g id="Window_40"><polygon id="Window_Frame-40" data-name="Window_Frame" points="690.33 983.28 690.33 1067.56 641.66 1039.37 641.66 955.55 690.33 983.28" fill="#adadf2"/><polygon id="Window-40" data-name="Window" points="687.39 986.68 687.39 1060.76 644.6 1036.02 644.6 962.34 687.39 986.68" fill="#d9d9ff"/><polygon id="Window_Frame_Down-40" data-name="Window_Frame_Down" points="648.88 1031.6 644.44 1036.02 687.39 1060.93 687.39 1053.82 648.88 1031.6" fill="#a6a6ff"/><polygon id="Window_Frame_Side-40" data-name="Window_Frame_Side" points="648.88 964.7 648.88 1031.6 644.44 1036.02 644.44 962.2 648.88 964.7" fill="#99f"/></g><g id="Window_41"><polygon id="Window_Frame-41" data-name="Window_Frame" points="754.96 623.27 754.96 707.55 706.29 679.36 706.29 595.54 754.96 623.27" fill="#adadf2"/><polygon id="Window-41" data-name="Window" points="752.02 626.67 752.02 700.77 709.23 676.02 709.23 602.34 752.02 626.67" fill="#d9d9ff"/><polygon id="Window_Frame_Down-41" data-name="Window_Frame_Down" points="713.51 671.59 709.07 676.02 752.02 700.92 752.02 693.82 713.51 671.59" fill="#a6a6ff"/><polygon id="Window_Frame_Side-41" data-name="Window_Frame_Side" points="713.51 604.7 713.51 671.59 709.07 676.02 709.07 602.19 713.51 604.7" fill="#99f"/></g><g id="Window_42"><polygon id="Window_Frame-42" data-name="Window_Frame" points="754.96 722.56 754.96 806.84 706.29 778.65 706.29 694.83 754.96 722.56" fill="#adadf2"/><polygon id="Window-42" data-name="Window" points="752.02 725.96 752.02 800.06 709.23 775.31 709.23 701.63 752.02 725.96" fill="#d9d9ff"/><polygon id="Window_Frame_Down-42" data-name="Window_Frame_Down" points="713.51 770.88 709.07 775.31 752.02 800.2 752.02 793.1 713.51 770.88" fill="#a6a6ff"/><polygon id="Window_Frame_Side-42" data-name="Window_Frame_Side" points="713.51 703.99 713.51 770.88 709.07 775.31 709.07 701.48 713.51 703.99" fill="#99f"/></g><g id="Window_43"><polygon id="Window_Frame-43" data-name="Window_Frame" points="754.96 821.66 754.96 905.94 706.29 877.76 706.29 793.93 754.96 821.66" fill="#adadf2"/><polygon id="Window-43" data-name="Window" points="752.02 825.06 752.02 899.15 709.23 874.41 709.23 800.72 752.02 825.06" fill="#d9d9ff"/><polygon id="Window_Frame_Down-43" data-name="Window_Frame_Down" points="713.51 869.97 709.07 874.41 752.02 899.3 752.02 892.21 713.51 869.97" fill="#a6a6ff"/><polygon id="Window_Frame_Side-43" data-name="Window_Frame_Side" points="713.51 803.09 713.51 869.97 709.07 874.41 709.07 800.58 713.51 803.09" fill="#99f"/></g><g id="Window_44"><polygon id="Window_Frame-44" data-name="Window_Frame" points="754.96 920.75 754.96 1005.03 706.29 976.84 706.29 893.02 754.96 920.75" fill="#adadf2"/><polygon id="Window-44" data-name="Window" points="752.02 924.15 752.02 998.24 709.23 973.5 709.23 899.81 752.02 924.15" fill="#d9d9ff"/><polygon id="Window_Frame_Down-44" data-name="Window_Frame_Down" points="713.51 969.07 709.07 973.5 752.02 998.39 752.02 991.29 713.51 969.07" fill="#a6a6ff"/><polygon id="Window_Frame_Side-44" data-name="Window_Frame_Side" points="713.51 902.17 713.51 969.07 709.07 973.5 709.07 899.67 713.51 902.17" fill="#99f"/></g><g id="Window_45"><polygon id="Window_Frame-45" data-name="Window_Frame" points="754.96 1019.85 754.96 1104.13 706.29 1075.95 706.29 992.13 754.96 1019.85" fill="#adadf2"/><polygon id="Window-45" data-name="Window" points="752.02 1023.25 752.02 1097.34 709.23 1072.61 709.23 998.91 752.02 1023.25" fill="#d9d9ff"/><polygon id="Window_Frame_Down-45" data-name="Window_Frame_Down" points="713.51 1068.17 709.07 1072.61 752.02 1097.49 752.02 1090.4 713.51 1068.17" fill="#a6a6ff"/><polygon id="Window_Frame_Side-45" data-name="Window_Frame_Side" points="713.51 1001.28 713.51 1068.17 709.07 1072.61 709.07 998.77 713.51 1001.28" fill="#99f"/></g></g><g id="Doors"><g id="Door_1"><g id="Door_1-2" data-name="Door_1"><polygon id="Door_Frame" points="231.64 1007.99 231.48 1161.69 154.72 1116.85 154.88 962.23 231.64 1007.99" fill="#9494ff"/><polygon id="Door" points="228.71 1011.39 228.55 1154.9 157.66 1113.16 157.81 969.02 228.71 1011.39" fill="#d9d9ff"/><polygon id="Door_Frame_Down" points="161.94 1108.71 157.52 1113.16 228.55 1155.06 228.55 1147.96 161.94 1108.71" fill="#a6a6ff"/><polygon id="Door_Frame_Side" points="162.1 971.55 161.94 1108.71 157.52 1113.16 157.66 969.04 162.1 971.55" fill="#99f"/></g><g id="Door_2"><polygon id="Door_Frame-2" data-name="Door_Frame" points="155.14 962.28 154.98 1116.99 78.22 1071.35 78.37 916.53 155.14 962.28" fill="#9494ff"/><polygon id="Door-2" data-name="Door" points="152.2 965.69 152.04 1110.21 81.17 1068.01 81.31 923.31 152.2 965.69" fill="#d9d9ff"/><polygon id="Door_Frame_Down-2" data-name="Door_Frame_Down" points="85.44 1063.57 81.02 1068.01 152.04 1110.36 152.04 1103.26 85.44 1063.57" fill="#a6a6ff"/><polygon id="Door_Frame_Side-2" data-name="Door_Frame_Side" points="85.6 925.84 85.44 1063.57 81.02 1068.01 81.17 923.33 85.6 925.84" fill="#99f"/></g></g><g id="Door_2-2" data-name="Door_2"><g id="Door_1-3" data-name="Door_1"><polygon id="Door_Frame-3" data-name="Door_Frame" points="406.79 1110.95 406.63 1264.65 329.88 1219.59 330.04 1065.19 406.79 1110.95" fill="#9494ff"/><polygon id="Door-3" data-name="Door" points="403.85 1114.35 403.7 1257.87 332.82 1215.72 332.98 1071.99 403.85 1114.35" fill="#d9d9ff"/><polygon id="Door_Frame_Down-3" data-name="Door_Frame_Down" points="337.1 1211.29 332.68 1215.72 403.7 1258.01 403.7 1250.92 337.1 1211.29" fill="#a6a6ff"/><polygon id="Door_Frame_Side-3" data-name="Door_Frame_Side" points="337.26 1074.5 337.1 1211.29 332.68 1215.72 332.82 1071.99 337.26 1074.5" fill="#99f"/></g><g id="Door_2-3" data-name="Door_2"><polygon id="Door_Frame-4" data-name="Door_Frame" points="330.35 1065.45 330.21 1219.78 253.45 1174.78 253.6 1019.69 330.35 1065.45" fill="#9494ff"/><polygon id="Door-4" data-name="Door" points="327.42 1068.84 327.27 1212.99 256.39 1171.43 256.55 1026.49 327.42 1068.84" fill="#d9d9ff"/><polygon id="Door_Frame_Down-4" data-name="Door_Frame_Down" points="260.67 1167.01 256.23 1171.43 327.27 1213.15 327.27 1206.04 260.67 1167.01" fill="#a6a6ff"/><polygon id="Door_Frame_Side-4" data-name="Door_Frame_Side" points="260.83 1029 260.67 1167.01 256.23 1171.43 256.39 1026.49 260.83 1029" fill="#99f"/></g></g><g id="Door_3"><g id="Door_1-4" data-name="Door_1"><polygon id="Door_Frame-5" data-name="Door_Frame" points="586.7 1217.19 586.53 1370.9 509.79 1325.51 509.93 1171.43 586.7 1217.19" fill="#9494ff"/><polygon id="Door-5" data-name="Door" points="583.75 1220.59 583.6 1364.1 512.73 1321.82 512.88 1178.22 583.75 1220.59" fill="#d9d9ff"/><polygon id="Door_Frame_Down-5" data-name="Door_Frame_Down" points="516.99 1317.37 512.57 1321.82 583.6 1364.27 583.6 1357.15 516.99 1317.37" fill="#a6a6ff"/><polygon id="Door_Frame_Side-5" data-name="Door_Frame_Side" points="517.16 1180.73 516.99 1317.37 512.57 1321.82 512.73 1178.23 517.16 1180.73" fill="#99f"/></g><g id="Door_2-4" data-name="Door_2"><polygon id="Door_Frame-6" data-name="Door_Frame" points="510.75 1171.85 510.59 1326.03 433.84 1280.7 433.98 1126.11 510.75 1171.85" fill="#9494ff"/><polygon id="Door-6" data-name="Door" points="507.81 1175.24 507.65 1319.24 436.78 1277.37 436.93 1132.87 507.81 1175.24" fill="#d9d9ff"/><polygon id="Door_Frame_Down-6" data-name="Door_Frame_Down" points="441.07 1272.93 436.62 1277.37 507.65 1319.39 507.65 1312.29 441.07 1272.93" fill="#a6a6ff"/><polygon id="Door_Frame_Side-6" data-name="Door_Frame_Side" points="441.2 1135.4 441.07 1272.93 436.62 1277.37 436.78 1132.89 441.2 1135.4" fill="#99f"/></g></g><g id="Door_4"><g id="Door_1-5" data-name="Door_1"><polygon id="Door_Frame-7" data-name="Door_Frame" points="1030.31 1352.72 1030.17 1506.4 953.4 1460.58 953.55 1306.94 1030.31 1352.72" fill="#9494ff"/><polygon id="Door-7" data-name="Door" points="1027.38 1356.09 1027.22 1499.62 956.34 1456.86 956.5 1313.75 1027.38 1356.09" fill="#d9d9ff"/><polygon id="Door_Frame_Down-7" data-name="Door_Frame_Down" points="960.63 1452.42 956.2 1456.86 1027.22 1499.78 1027.22 1492.67 960.63 1452.42" fill="#7575fc"/><polygon id="Door_Frame_Side-7" data-name="Door_Frame_Side" points="960.78 1316.46 960.63 1452.61 956.2 1457.06 956.34 1313.93 960.78 1316.46" fill="#8383ff"/></g><g id="Door_2-5" data-name="Door_2"><polygon id="Door_Frame-8" data-name="Door_Frame" points="954.18 1307.28 954.03 1460.98 877.27 1414.77 877.43 1261.52 954.18 1307.28" fill="#9494ff"/><polygon id="Door-8" data-name="Door" points="951.25 1310.67 951.09 1454.21 880.2 1411.43 880.36 1268.32 951.25 1310.67" fill="#d9d9ff"/><polygon id="Door_Frame_Down-8" data-name="Door_Frame_Down" points="884.49 1407.01 880.06 1411.43 951.09 1454.35 951.09 1447.27 884.49 1407.01" fill="#7575fc"/><polygon id="Door_Frame_Side-8" data-name="Door_Frame_Side" points="884.65 1270.83 884.49 1407.01 880.06 1411.43 880.2 1268.33 884.65 1270.83" fill="#8383ff"/></g></g></g><polygon id="Wall_Side-2" data-name="Wall_Side" points="708.69 652.35 943 791.4 943 1381.46 708.69 1247.45 708.69 652.35" fill="#a6a6ff"/><g id="Windows-2" data-name="Windows"><g id="Window_1-2" data-name="Window_1"><polygon id="Window_Frame-46" data-name="Window_Frame" points="828.44 793.93 828.28 934.33 751.52 888.12 751.68 748.17 828.44 793.93" fill="#9494ff"/><polygon id="Window-46" data-name="Window" points="825.5 797.31 825.34 927.56 754.46 884.79 754.62 754.96 825.5 797.31" fill="#d9d9ff"/><polygon id="Window_Frame_Down-46" data-name="Window_Frame_Down" points="758.74 880.35 754.32 884.79 823.27 926.7 823.27 919.61 758.74 880.35" fill="#7575fc"/><polygon id="Window_Frame_Side-46" data-name="Window_Frame_Side" points="758.9 757.48 758.74 880.35 754.32 884.79 754.46 754.98 758.9 757.48" fill="#8383ff"/></g><g id="Window_2-2" data-name="Window_2"><polygon id="Window_Frame-47" data-name="Window_Frame" points="900.19 836.77 900.04 977.18 823.27 931.31 823.43 791.02 900.19 836.77" fill="#9494ff"/><polygon id="Window-47" data-name="Window" points="897.24 840.16 897.09 970.38 826.21 927.63 826.37 797.8 897.24 840.16" fill="#d9d9ff"/><polygon id="Window_Frame_Down-47" data-name="Window_Frame_Down" points="830.5 923.19 826.07 927.63 897.09 970.54 897.09 963.45 830.5 923.19" fill="#7575fc"/><polygon id="Window_Frame_Side-47" data-name="Window_Frame_Side" points="830.65 800.32 830.5 923.19 826.07 927.63 826.21 797.81 830.65 800.32" fill="#8383ff"/></g><polygon id="Windows_Frame_Front" points="751.68 748.17 751.68 774.77 900.19 859.06 900.19 834.61 751.68 748.17" fill="#99f"/><g id="Window_3-2" data-name="Window_3"><polygon id="Window_Frame-48" data-name="Window_Frame" points="828.44 934.01 828.28 1074.43 751.52 1028.23 751.68 888.26 828.44 934.01" fill="#9494ff"/><polygon id="Window-48" data-name="Window" points="825.5 937.42 825.34 1067.63 754.46 1024.87 754.62 895.06 825.5 937.42" fill="#d9d9ff"/><polygon id="Window_Frame_Down-48" data-name="Window_Frame_Down" points="758.74 1020.45 754.32 1024.87 823.27 1066.56 823.27 1059.46 758.74 1020.45" fill="#7575fc"/><polygon id="Window_Frame_Side-48" data-name="Window_Frame_Side" points="758.9 897.56 758.74 1020.45 754.32 1024.87 754.46 895.06 758.9 897.56" fill="#8383ff"/></g><g id="Window_4-2" data-name="Window_4"><polygon id="Window_Frame-49" data-name="Window_Frame" points="900.19 976.88 900.04 1117.27 823.27 1071.43 823.43 931.1 900.19 976.88" fill="#9494ff"/><polygon id="Window-49" data-name="Window" points="897.24 980.25 897.09 1110.48 826.21 1067.71 826.37 937.9 897.24 980.25" fill="#d9d9ff"/><polygon id="Window_Frame_Down-49" data-name="Window_Frame_Down" points="830.5 1063.29 826.07 1067.71 897.09 1110.63 897.09 1103.53 830.5 1063.29" fill="#7575fc"/><polygon id="Window_Frame_Side-49" data-name="Window_Frame_Side" points="830.65 940.43 830.5 1063.29 826.07 1067.71 826.21 937.92 830.65 940.43" fill="#8383ff"/></g><polygon id="Windows_Frame_Front-2" data-name="Windows_Frame_Front" points="751.52 887.9 751.52 914.93 900.19 1002.85 900.19 976.77 751.52 887.9" fill="#99f"/><g id="Window_5-2" data-name="Window_5"><polygon id="Window_Frame-50" data-name="Window_Frame" points="828.44 1072.63 828.28 1213.03 751.52 1166.82 751.68 1026.88 828.44 1072.63" fill="#9494ff"/><polygon id="Window-50" data-name="Window" points="825.5 1076.02 825.34 1206.25 754.46 1163.48 754.62 1033.67 825.5 1076.02" fill="#d9d9ff"/><polygon id="Window_Frame_Down-50" data-name="Window_Frame_Down" points="758.74 1159.04 754.32 1163.48 823.27 1205.44 823.27 1198.34 758.74 1159.04" fill="#7575fc"/><polygon id="Window_Frame_Side-50" data-name="Window_Frame_Side" points="758.9 1036.18 758.74 1159.04 754.32 1163.48 754.46 1033.67 758.9 1036.18" fill="#8383ff"/></g><g id="Window_6-2" data-name="Window_6"><polygon id="Window_Frame-51" data-name="Window_Frame" points="900.19 1115.48 900.04 1255.87 823.27 1210.02 823.43 1069.72 900.19 1115.48" fill="#9494ff"/><polygon id="Window-51" data-name="Window" points="897.24 1118.87 897.09 1249.08 826.21 1206.33 826.37 1076.5 897.24 1118.87" fill="#d9d9ff"/><polygon id="Window_Frame_Down-51" data-name="Window_Frame_Down" points="830.5 1201.89 826.07 1206.33 897.09 1249.23 897.09 1242.14 830.5 1201.89" fill="#7575fc"/><polygon id="Window_Frame_Side-51" data-name="Window_Frame_Side" points="830.65 1079.03 830.5 1201.89 826.07 1206.33 826.21 1076.51 830.65 1079.03" fill="#8383ff"/></g><polygon id="Windows_Frame_Front-3" data-name="Windows_Frame_Front" points="751.52 1166.81 751.52 1193.83 900.19 1281.75 900.19 1255.67 751.52 1166.81" fill="#99f"/><polygon id="Windows_Frame_Front-4" data-name="Windows_Frame_Front" points="751.52 1031.26 751.52 1058.28 900.19 1146.22 900.19 1120.13 751.52 1031.26" fill="#99f"/></g></g><g id="Front"><polygon id="Wall_Front_Yellow" points="943 791.4 943 1381.46 1800 885.59 1799.29 295.74 943 791.4" fill="#b3b3ff"/><polygon id="Wall_Front_White" points="1072.09 1306.79 1072.09 1531.29 1799.94 1111.98 1800 885.59 1072.09 1306.79" fill="#b3b3ff"/><g id="Windows-3" data-name="Windows"><g id="Window_1-3" data-name="Window_1"><polygon id="Window_Frame-52" data-name="Window_Frame" points="1111.04 774.6 1111.04 858.87 1159.69 830.32 1159.69 746.48 1111.04 774.6" fill="#9494ff"/><polygon id="Window-52" data-name="Window" points="1113.96 778 1113.96 852.09 1156.76 826.97 1156.76 753.29 1113.96 778" fill="#d9d9ff"/><polygon id="Window_Frame_Down-52" data-name="Window_Frame_Down" points="1152.48 822.54 1156.91 826.97 1113.96 852.23 1113.96 845.14 1152.48 822.54" fill="#7575fc"/><polygon id="Window_Frame_Side-52" data-name="Window_Frame_Side" points="1152.48 755.65 1152.48 822.54 1156.91 826.97 1156.91 753.14 1152.48 755.65" fill="#8383ff"/></g><g id="Window_2-3" data-name="Window_2"><polygon id="Window_Frame-53" data-name="Window_Frame" points="1111.04 873.69 1111.04 957.96 1159.69 929.4 1159.69 845.58 1111.04 873.69" fill="#9494ff"/><polygon id="Window-53" data-name="Window" points="1113.96 877.09 1113.96 951.18 1156.76 926.07 1156.76 852.37 1113.96 877.09" fill="#d9d9ff"/><polygon id="Window_Frame_Down-53" data-name="Window_Frame_Down" points="1152.48 921.64 1156.91 926.07 1113.96 951.32 1113.96 944.23 1152.48 921.64" fill="#7575fc"/><polygon id="Window_Frame_Side-53" data-name="Window_Frame_Side" points="1152.48 854.74 1152.48 921.64 1156.91 926.07 1156.91 852.24 1152.48 854.74" fill="#8383ff"/></g><g id="Window_3-3" data-name="Window_3"><polygon id="Window_Frame-54" data-name="Window_Frame" points="1111.04 972.8 1111.04 1057.07 1159.69 1028.51 1159.69 944.68 1111.04 972.8" fill="#9494ff"/><polygon id="Window-54" data-name="Window" points="1113.96 976.19 1113.96 1050.27 1156.76 1025.17 1156.76 951.48 1113.96 976.19" fill="#d9d9ff"/><polygon id="Window_Frame_Down-54" data-name="Window_Frame_Down" points="1152.48 1020.74 1156.91 1025.17 1113.96 1050.43 1113.96 1043.33 1152.48 1020.74" fill="#7575fc"/><polygon id="Window_Frame_Side-54" data-name="Window_Frame_Side" points="1152.48 953.84 1152.48 1020.74 1156.91 1025.17 1156.91 951.34 1152.48 953.84" fill="#8383ff"/></g><g id="Window_4-3" data-name="Window_4"><polygon id="Window_Frame-55" data-name="Window_Frame" points="1111.04 1071.89 1111.04 1156.17 1159.69 1127.62 1159.69 1043.79 1111.04 1071.89" fill="#9494ff"/><polygon id="Window-55" data-name="Window" points="1113.96 1075.29 1113.96 1149.38 1156.76 1124.27 1156.76 1050.59 1113.96 1075.29" fill="#d9d9ff"/><polygon id="Window_Frame_Down-55" data-name="Window_Frame_Down" points="1152.48 1119.84 1156.91 1124.27 1113.96 1149.53 1113.96 1142.44 1152.48 1119.84" fill="#7575fc"/><polygon id="Window_Frame_Side-55" data-name="Window_Frame_Side" points="1152.48 1052.95 1152.48 1119.84 1156.91 1124.27 1156.91 1050.43 1152.48 1052.95" fill="#8383ff"/></g><g id="Window_5-3" data-name="Window_5"><polygon id="Window_Frame-56" data-name="Window_Frame" points="1111.04 1170.97 1111.04 1255.25 1159.69 1226.7 1159.69 1142.88 1111.04 1170.97" fill="#9494ff"/><polygon id="Window-56" data-name="Window" points="1113.96 1174.38 1113.96 1248.46 1156.76 1223.35 1156.76 1149.66 1113.96 1174.38" fill="#d9d9ff"/><polygon id="Window_Frame_Down-56" data-name="Window_Frame_Down" points="1152.48 1218.92 1156.91 1223.35 1113.96 1248.6 1113.96 1241.53 1152.48 1218.92" fill="#7575fc"/><polygon id="Window_Frame_Side-56" data-name="Window_Frame_Side" points="1152.48 1152.03 1152.48 1218.92 1156.91 1223.35 1156.91 1149.53 1152.48 1152.03" fill="#8383ff"/></g><g id="Window_6-3" data-name="Window_6"><polygon id="Window_Frame-57" data-name="Window_Frame" points="1173.58 737.5 1173.58 821.79 1222.23 793.23 1222.23 709.4 1173.58 737.5" fill="#9494ff"/><polygon id="Window-57" data-name="Window" points="1176.5 740.91 1176.5 815 1219.31 789.89 1219.31 716.19 1176.5 740.91" fill="#d9d9ff"/><polygon id="Window_Frame_Down-57" data-name="Window_Frame_Down" points="1215.02 785.45 1219.46 789.89 1176.5 815.14 1176.5 808.05 1215.02 785.45" fill="#7575fc"/><polygon id="Window_Frame_Side-57" data-name="Window_Frame_Side" points="1215.02 718.57 1215.02 785.45 1219.46 789.89 1219.46 716.06 1215.02 718.57" fill="#8383ff"/></g><g id="Window_7-2" data-name="Window_7"><polygon id="Window_Frame-58" data-name="Window_Frame" points="1173.58 836.62 1173.58 920.89 1222.23 892.33 1222.23 808.51 1173.58 836.62" fill="#9494ff"/><polygon id="Window-58" data-name="Window" points="1176.5 840.01 1176.5 914.11 1219.31 888.99 1219.31 815.29 1176.5 840.01" fill="#d9d9ff"/><polygon id="Window_Frame_Down-58" data-name="Window_Frame_Down" points="1215.02 884.56 1219.46 888.99 1176.5 914.25 1176.5 907.15 1215.02 884.56" fill="#7575fc"/><polygon id="Window_Frame_Side-58" data-name="Window_Frame_Side" points="1215.02 817.67 1215.02 884.56 1219.46 888.99 1219.46 815.16 1215.02 817.67" fill="#8383ff"/></g><g id="Window_8-2" data-name="Window_8"><polygon id="Window_Frame-59" data-name="Window_Frame" points="1173.58 935.7 1173.58 1019.97 1222.23 991.41 1222.23 907.59 1173.58 935.7" fill="#9494ff"/><polygon id="Window-59" data-name="Window" points="1176.5 939.1 1176.5 1013.19 1219.31 988.07 1219.31 914.38 1176.5 939.1" fill="#d9d9ff"/><polygon id="Window_Frame_Down-59" data-name="Window_Frame_Down" points="1215.02 983.64 1219.46 988.07 1176.5 1013.33 1176.5 1006.23 1215.02 983.64" fill="#7575fc"/><polygon id="Window_Frame_Side-59" data-name="Window_Frame_Side" points="1215.02 916.74 1215.02 983.64 1219.46 988.07 1219.46 914.25 1215.02 916.74" fill="#8383ff"/></g><g id="Window_9-2" data-name="Window_9"><polygon id="Window_Frame-60" data-name="Window_Frame" points="1173.58 1034.8 1173.58 1119.08 1222.23 1090.52 1222.23 1006.69 1173.58 1034.8" fill="#9494ff"/><polygon id="Window-60" data-name="Window" points="1176.5 1038.2 1176.5 1112.3 1219.31 1087.17 1219.31 1013.49 1176.5 1038.2" fill="#d9d9ff"/><polygon id="Window_Frame_Down-60" data-name="Window_Frame_Down" points="1215.02 1082.75 1219.46 1087.17 1176.5 1112.43 1176.5 1105.34 1215.02 1082.75" fill="#7575fc"/><polygon id="Window_Frame_Side-60" data-name="Window_Frame_Side" points="1215.02 1015.85 1215.02 1082.75 1219.46 1087.17 1219.46 1013.35 1215.02 1015.85" fill="#8383ff"/></g><g id="Window_10-2" data-name="Window_10"><polygon id="Window_Frame-61" data-name="Window_Frame" points="1173.58 1133.89 1173.58 1218.16 1222.23 1189.61 1222.23 1105.78 1173.58 1133.89" fill="#9494ff"/><polygon id="Window-61" data-name="Window" points="1176.5 1137.29 1176.5 1211.38 1219.31 1186.27 1219.31 1112.58 1176.5 1137.29" fill="#d9d9ff"/><polygon id="Window_Frame_Down-61" data-name="Window_Frame_Down" points="1215.02 1181.83 1219.46 1186.27 1176.5 1211.52 1176.5 1204.43 1215.02 1181.83" fill="#7575fc"/><polygon id="Window_Frame_Side-61" data-name="Window_Frame_Side" points="1215.02 1114.93 1215.02 1181.83 1219.46 1186.27 1219.46 1112.43 1215.02 1114.93" fill="#8383ff"/></g><g id="Window_11-2" data-name="Window_11"><polygon id="Window_Frame-62" data-name="Window_Frame" points="1238.21 700.94 1238.21 785.22 1286.87 756.67 1286.87 672.83 1238.21 700.94" fill="#9494ff"/><polygon id="Window-62" data-name="Window" points="1241.14 704.34 1241.14 778.43 1283.94 753.32 1283.94 679.63 1241.14 704.34" fill="#d9d9ff"/><polygon id="Window_Frame_Down-62" data-name="Window_Frame_Down" points="1279.65 748.89 1284.09 753.32 1241.14 778.58 1241.14 771.48 1279.65 748.89" fill="#7575fc"/><polygon id="Window_Frame_Side-62" data-name="Window_Frame_Side" points="1279.65 682 1279.65 748.89 1284.09 753.32 1284.09 679.49 1279.65 682" fill="#8383ff"/></g><g id="Window_12-2" data-name="Window_12"><polygon id="Window_Frame-63" data-name="Window_Frame" points="1238.21 800.04 1238.21 884.31 1286.87 855.76 1286.87 771.93 1238.21 800.04" fill="#9494ff"/><polygon id="Window-63" data-name="Window" points="1241.14 803.43 1241.14 877.53 1283.94 852.42 1283.94 778.72 1241.14 803.43" fill="#d9d9ff"/><polygon id="Window_Frame_Down-63" data-name="Window_Frame_Down" points="1279.65 847.99 1284.09 852.42 1241.14 877.68 1241.14 870.58 1279.65 847.99" fill="#7575fc"/><polygon id="Window_Frame_Side-63" data-name="Window_Frame_Side" points="1279.65 781.09 1279.65 847.99 1284.09 852.42 1284.09 778.58 1279.65 781.09" fill="#8383ff"/></g><g id="Window_13-2" data-name="Window_13"><polygon id="Window_Frame-64" data-name="Window_Frame" points="1238.21 899.14 1238.21 983.41 1286.87 954.86 1286.87 871.03 1238.21 899.14" fill="#9494ff"/><polygon id="Window-64" data-name="Window" points="1241.14 902.54 1241.14 976.63 1283.94 951.52 1283.94 877.83 1241.14 902.54" fill="#d9d9ff"/><polygon id="Window_Frame_Down-64" data-name="Window_Frame_Down" points="1279.65 947.09 1284.09 951.52 1241.14 976.77 1241.14 969.68 1279.65 947.09" fill="#7575fc"/><polygon id="Window_Frame_Side-64" data-name="Window_Frame_Side" points="1279.65 880.19 1279.65 947.09 1284.09 951.52 1284.09 877.68 1279.65 880.19" fill="#8383ff"/></g><g id="Window_14-2" data-name="Window_14"><polygon id="Window_Frame-65" data-name="Window_Frame" points="1238.21 998.23 1238.21 1082.51 1286.87 1053.94 1286.87 970.12 1238.21 998.23" fill="#9494ff"/><polygon id="Window-65" data-name="Window" points="1241.14 1001.62 1241.14 1075.71 1283.94 1050.61 1283.94 976.92 1241.14 1001.62" fill="#d9d9ff"/><polygon id="Window_Frame_Down-65" data-name="Window_Frame_Down" points="1279.65 1046.17 1284.09 1050.61 1241.14 1075.86 1241.14 1068.78 1279.65 1046.17" fill="#7575fc"/><polygon id="Window_Frame_Side-65" data-name="Window_Frame_Side" points="1279.65 979.27 1279.65 1046.17 1284.09 1050.61 1284.09 976.77 1279.65 979.27" fill="#8383ff"/></g><g id="Window_15-2" data-name="Window_15"><polygon id="Window_Frame-66" data-name="Window_Frame" points="1238.21 1097.34 1238.21 1181.6 1286.87 1153.04 1286.87 1069.23 1238.21 1097.34" fill="#9494ff"/><polygon id="Window-66" data-name="Window" points="1241.14 1100.72 1241.14 1174.82 1283.94 1149.71 1283.94 1076.02 1241.14 1100.72" fill="#d9d9ff"/><polygon id="Window_Frame_Down-66" data-name="Window_Frame_Down" points="1279.65 1145.27 1284.09 1149.71 1241.14 1174.96 1241.14 1167.87 1279.65 1145.27" fill="#7575fc"/><polygon id="Window_Frame_Side-66" data-name="Window_Frame_Side" points="1279.65 1078.38 1279.65 1145.27 1284.09 1149.71 1284.09 1075.87 1279.65 1078.38" fill="#8383ff"/></g><g id="Window_16-2" data-name="Window_16"><polygon id="Window_Frame-67" data-name="Window_Frame" points="1303.55 662.35 1303.55 746.62 1352.2 718.07 1352.2 634.24 1303.55 662.35" fill="#9494ff"/><polygon id="Window-67" data-name="Window" points="1306.47 665.74 1306.47 739.84 1349.26 714.73 1349.26 641.03 1306.47 665.74" fill="#d9d9ff"/><polygon id="Window_Frame_Down-67" data-name="Window_Frame_Down" points="1344.98 710.3 1349.42 714.73 1306.47 739.98 1306.47 732.89 1344.98 710.3" fill="#7575fc"/><polygon id="Window_Frame_Side-67" data-name="Window_Frame_Side" points="1344.98 643.4 1344.98 710.3 1349.42 714.73 1349.42 640.9 1344.98 643.4" fill="#8383ff"/></g><g id="Window_17-2" data-name="Window_17"><polygon id="Window_Frame-68" data-name="Window_Frame" points="1303.55 761.45 1303.55 845.72 1352.2 817.16 1352.2 733.34 1303.55 761.45" fill="#9494ff"/><polygon id="Window-68" data-name="Window" points="1306.47 764.84 1306.47 838.93 1349.26 813.83 1349.26 740.13 1306.47 764.84" fill="#d9d9ff"/><polygon id="Window_Frame_Down-68" data-name="Window_Frame_Down" points="1344.98 809.39 1349.42 813.83 1306.47 839.07 1306.47 831.98 1344.98 809.39" fill="#7575fc"/><polygon id="Window_Frame_Side-68" data-name="Window_Frame_Side" points="1344.98 742.49 1344.98 809.39 1349.42 813.83 1349.42 740 1344.98 742.49" fill="#8383ff"/></g><g id="Window_18-2" data-name="Window_18"><polygon id="Window_Frame-69" data-name="Window_Frame" points="1303.55 860.54 1303.55 944.82 1352.2 916.26 1352.2 832.44 1303.55 860.54" fill="#9494ff"/><polygon id="Window-69" data-name="Window" points="1306.47 863.94 1306.47 938.03 1349.26 912.92 1349.26 839.23 1306.47 863.94" fill="#d9d9ff"/><polygon id="Window_Frame_Down-69" data-name="Window_Frame_Down" points="1344.98 908.5 1349.42 912.92 1306.47 938.18 1306.47 931.09 1344.98 908.5" fill="#7575fc"/><polygon id="Window_Frame_Side-69" data-name="Window_Frame_Side" points="1344.98 841.59 1344.98 908.5 1349.42 912.92 1349.42 839.09 1344.98 841.59" fill="#8383ff"/></g><g id="Window_19-2" data-name="Window_19"><polygon id="Window_Frame-70" data-name="Window_Frame" points="1303.55 959.63 1303.55 1043.91 1352.2 1015.36 1352.2 931.53 1303.55 959.63" fill="#9494ff"/><polygon id="Window-70" data-name="Window" points="1306.47 963.03 1306.47 1037.12 1349.26 1012.01 1349.26 938.32 1306.47 963.03" fill="#d9d9ff"/><polygon id="Window_Frame_Down-70" data-name="Window_Frame_Down" points="1344.98 1007.58 1349.42 1012.01 1306.47 1037.26 1306.47 1030.17 1344.98 1007.58" fill="#7575fc"/><polygon id="Window_Frame_Side-70" data-name="Window_Frame_Side" points="1344.98 940.69 1344.98 1007.58 1349.42 1012.01 1349.42 938.18 1344.98 940.69" fill="#8383ff"/></g><g id="Window_20-2" data-name="Window_20"><polygon id="Window_Frame-71" data-name="Window_Frame" points="1303.55 1058.73 1303.55 1143.02 1352.2 1114.46 1352.2 1030.63 1303.55 1058.73" fill="#9494ff"/><polygon id="Window-71" data-name="Window" points="1306.47 1062.13 1306.47 1136.22 1349.26 1111.11 1349.26 1037.42 1306.47 1062.13" fill="#d9d9ff"/><polygon id="Window_Frame_Down-71" data-name="Window_Frame_Down" points="1344.98 1106.69 1349.42 1111.11 1306.47 1136.37 1306.47 1129.28 1344.98 1106.69" fill="#7575fc"/><polygon id="Window_Frame_Side-71" data-name="Window_Frame_Side" points="1344.98 1039.79 1344.98 1106.69 1349.42 1111.11 1349.42 1037.28 1344.98 1039.79" fill="#8383ff"/></g><g id="Window_21-2" data-name="Window_21"><polygon id="Window_Frame-72" data-name="Window_Frame" points="1366.68 625.8 1366.68 710.09 1415.33 681.53 1415.33 597.7 1366.68 625.8" fill="#9494ff"/><polygon id="Window-72" data-name="Window" points="1369.6 629.2 1369.6 703.29 1412.4 678.18 1412.4 604.49 1369.6 629.2" fill="#d9d9ff"/><polygon id="Window_Frame_Down-72" data-name="Window_Frame_Down" points="1408.11 673.75 1412.55 678.18 1369.6 703.44 1369.6 696.35 1408.11 673.75" fill="#7575fc"/><polygon id="Window_Frame_Side-72" data-name="Window_Frame_Side" points="1408.11 606.85 1408.11 673.75 1412.55 678.18 1412.55 604.35 1408.11 606.85" fill="#8383ff"/></g><g id="Window_22-2" data-name="Window_22"><polygon id="Window_Frame-73" data-name="Window_Frame" points="1366.68 724.91 1366.68 809.17 1415.33 780.62 1415.33 696.79 1366.68 724.91" fill="#9494ff"/><polygon id="Window-73" data-name="Window" points="1369.6 728.3 1369.6 802.39 1412.4 777.28 1412.4 703.59 1369.6 728.3" fill="#d9d9ff"/><polygon id="Window_Frame_Down-73" data-name="Window_Frame_Down" points="1408.11 772.85 1412.55 777.28 1369.6 802.54 1369.6 795.44 1408.11 772.85" fill="#7575fc"/><polygon id="Window_Frame_Side-73" data-name="Window_Frame_Side" points="1408.11 705.95 1408.11 772.85 1412.55 777.28 1412.55 703.45 1408.11 705.95" fill="#8383ff"/></g><g id="Window_23-2" data-name="Window_23"><polygon id="Window_Frame-74" data-name="Window_Frame" points="1366.68 824.01 1366.68 908.28 1415.33 879.72 1415.33 795.89 1366.68 824.01" fill="#9494ff"/><polygon id="Window-74" data-name="Window" points="1369.6 827.4 1369.6 901.5 1412.4 876.38 1412.4 802.69 1369.6 827.4" fill="#d9d9ff"/><polygon id="Window_Frame_Down-74" data-name="Window_Frame_Down" points="1408.11 871.96 1412.55 876.38 1369.6 901.64 1369.6 894.54 1408.11 871.96" fill="#7575fc"/><polygon id="Window_Frame_Side-74" data-name="Window_Frame_Side" points="1408.11 805.05 1408.11 871.96 1412.55 876.38 1412.55 802.55 1408.11 805.05" fill="#8383ff"/></g><g id="Window_24-2" data-name="Window_24"><polygon id="Window_Frame-75" data-name="Window_Frame" points="1366.68 923.08 1366.68 1007.37 1415.33 978.81 1415.33 894.99 1366.68 923.08" fill="#9494ff"/><polygon id="Window-75" data-name="Window" points="1369.6 926.49 1369.6 1000.57 1412.4 975.46 1412.4 901.77 1369.6 926.49" fill="#d9d9ff"/><polygon id="Window_Frame_Down-75" data-name="Window_Frame_Down" points="1408.11 971.04 1412.55 975.46 1369.6 1000.73 1369.6 993.63 1408.11 971.04" fill="#7575fc"/><polygon id="Window_Frame_Side-75" data-name="Window_Frame_Side" points="1408.11 904.14 1408.11 971.04 1412.55 975.46 1412.55 901.64 1408.11 904.14" fill="#8383ff"/></g><g id="Window_25-2" data-name="Window_25"><polygon id="Window_Frame-76" data-name="Window_Frame" points="1366.68 1022.19 1366.68 1106.47 1415.33 1077.91 1415.33 994.09 1366.68 1022.19" fill="#9494ff"/><polygon id="Window-76" data-name="Window" points="1369.6 1025.59 1369.6 1099.69 1412.4 1074.58 1412.4 1000.88 1369.6 1025.59" fill="#d9d9ff"/><polygon id="Window_Frame_Down-76" data-name="Window_Frame_Down" points="1408.11 1070.14 1412.55 1074.58 1369.6 1099.83 1369.6 1092.73 1408.11 1070.14" fill="#7575fc"/><polygon id="Window_Frame_Side-76" data-name="Window_Frame_Side" points="1408.11 1003.25 1408.11 1070.14 1412.55 1074.58 1412.55 1000.74 1408.11 1003.25" fill="#8383ff"/></g><g id="Window_26-2" data-name="Window_26"><polygon id="Window_Frame-77" data-name="Window_Frame" points="1431.18 589.02 1431.18 673.3 1479.84 644.74 1479.84 560.91 1431.18 589.02" fill="#9494ff"/><polygon id="Window-77" data-name="Window" points="1434.1 592.41 1434.1 666.51 1476.9 641.4 1476.9 567.71 1434.1 592.41" fill="#d9d9ff"/><polygon id="Window_Frame_Down-77" data-name="Window_Frame_Down" points="1472.62 636.96 1477.06 641.4 1434.1 666.65 1434.1 659.55 1472.62 636.96" fill="#7575fc"/><polygon id="Window_Frame_Side-77" data-name="Window_Frame_Side" points="1472.62 570.06 1472.62 636.96 1477.06 641.4 1477.06 567.56 1472.62 570.06" fill="#8383ff"/></g><g id="Window_27-2" data-name="Window_27"><polygon id="Window_Frame-78" data-name="Window_Frame" points="1431.18 688.1 1431.18 772.39 1479.84 743.83 1479.84 660 1431.18 688.1" fill="#9494ff"/><polygon id="Window-78" data-name="Window" points="1434.1 691.51 1434.1 765.6 1476.9 740.49 1476.9 666.79 1434.1 691.51" fill="#d9d9ff"/><polygon id="Window_Frame_Down-78" data-name="Window_Frame_Down" points="1472.62 736.06 1477.06 740.49 1434.1 765.74 1434.1 758.65 1472.62 736.06" fill="#7575fc"/><polygon id="Window_Frame_Side-78" data-name="Window_Frame_Side" points="1472.62 669.16 1472.62 736.06 1477.06 740.49 1477.06 666.65 1472.62 669.16" fill="#8383ff"/></g><g id="Window_28-2" data-name="Window_28"><polygon id="Window_Frame-79" data-name="Window_Frame" points="1431.18 787.21 1431.18 871.48 1479.84 842.93 1479.84 759.11 1431.18 787.21" fill="#9494ff"/><polygon id="Window-79" data-name="Window" points="1434.1 790.61 1434.1 864.7 1476.9 839.59 1476.9 765.9 1434.1 790.61" fill="#d9d9ff"/><polygon id="Window_Frame_Down-79" data-name="Window_Frame_Down" points="1472.62 835.16 1477.06 839.59 1434.1 864.84 1434.1 857.75 1472.62 835.16" fill="#7575fc"/><polygon id="Window_Frame_Side-79" data-name="Window_Frame_Side" points="1472.62 768.26 1472.62 835.16 1477.06 839.59 1477.06 765.76 1472.62 768.26" fill="#8383ff"/></g><g id="Window_29-2" data-name="Window_29"><polygon id="Window_Frame-80" data-name="Window_Frame" points="1431.18 886.3 1431.18 970.57 1479.84 942.02 1479.84 858.19 1431.18 886.3" fill="#9494ff"/><polygon id="Window-80" data-name="Window" points="1434.1 889.69 1434.1 963.79 1476.9 938.68 1476.9 864.98 1434.1 889.69" fill="#d9d9ff"/><polygon id="Window_Frame_Down-80" data-name="Window_Frame_Down" points="1472.62 934.24 1477.06 938.68 1434.1 963.92 1434.1 956.84 1472.62 934.24" fill="#7575fc"/><polygon id="Window_Frame_Side-80" data-name="Window_Frame_Side" points="1472.62 867.35 1472.62 934.24 1477.06 938.68 1477.06 864.85 1472.62 867.35" fill="#8383ff"/></g><g id="Window_30-2" data-name="Window_30"><polygon id="Window_Frame-81" data-name="Window_Frame" points="1431.18 985.39 1431.18 1069.67 1479.84 1041.12 1479.84 957.29 1431.18 985.39" fill="#9494ff"/><polygon id="Window-81" data-name="Window" points="1434.1 988.8 1434.1 1062.89 1476.9 1037.78 1476.9 964.08 1434.1 988.8" fill="#d9d9ff"/><polygon id="Window_Frame_Down-81" data-name="Window_Frame_Down" points="1472.62 1033.35 1477.06 1037.78 1434.1 1063.03 1434.1 1055.94 1472.62 1033.35" fill="#7575fc"/><polygon id="Window_Frame_Side-81" data-name="Window_Frame_Side" points="1472.62 966.46 1472.62 1033.35 1477.06 1037.78 1477.06 963.95 1472.62 966.46" fill="#8383ff"/></g><g id="Window_31-2" data-name="Window_31"><polygon id="Window_Frame-82" data-name="Window_Frame" points="1495.56 551.14 1495.56 635.4 1544.21 606.85 1544.21 523.03 1495.56 551.14" fill="#9494ff"/><polygon id="Window-82" data-name="Window" points="1498.48 554.53 1498.48 628.62 1541.27 603.51 1541.27 529.82 1498.48 554.53" fill="#d9d9ff"/><polygon id="Window_Frame_Down-82" data-name="Window_Frame_Down" points="1536.99 599.07 1541.43 603.51 1498.48 628.77 1498.48 621.67 1536.99 599.07" fill="#7575fc"/><polygon id="Window_Frame_Side-82" data-name="Window_Frame_Side" points="1536.99 532.18 1536.99 599.07 1541.43 603.51 1541.43 529.67 1536.99 532.18" fill="#8383ff"/></g><g id="Window_32-2" data-name="Window_32"><polygon id="Window_Frame-83" data-name="Window_Frame" points="1495.56 650.23 1495.56 734.5 1544.21 705.95 1544.21 622.12 1495.56 650.23" fill="#9494ff"/><polygon id="Window-83" data-name="Window" points="1498.48 653.62 1498.48 727.72 1541.27 702.61 1541.27 628.92 1498.48 653.62" fill="#d9d9ff"/><polygon id="Window_Frame_Down-83" data-name="Window_Frame_Down" points="1536.99 698.17 1541.43 702.61 1498.48 727.87 1498.48 720.77 1536.99 698.17" fill="#7575fc"/><polygon id="Window_Frame_Side-83" data-name="Window_Frame_Side" points="1536.99 631.27 1536.99 698.17 1541.43 702.61 1541.43 628.78 1536.99 631.27" fill="#8383ff"/></g><g id="Window_33-2" data-name="Window_33"><polygon id="Window_Frame-84" data-name="Window_Frame" points="1495.56 749.32 1495.56 833.61 1544.21 805.05 1544.21 721.23 1495.56 749.32" fill="#9494ff"/><polygon id="Window-84" data-name="Window" points="1498.48 752.72 1498.48 826.81 1541.27 801.7 1541.27 728.01 1498.48 752.72" fill="#d9d9ff"/><polygon id="Window_Frame_Down-84" data-name="Window_Frame_Down" points="1536.99 797.27 1541.43 801.7 1498.48 826.96 1498.48 819.87 1536.99 797.27" fill="#7575fc"/><polygon id="Window_Frame_Side-84" data-name="Window_Frame_Side" points="1536.99 730.38 1536.99 797.27 1541.43 801.7 1541.43 727.87 1536.99 730.38" fill="#8383ff"/></g><g id="Window_34-2" data-name="Window_34"><polygon id="Window_Frame-85" data-name="Window_Frame" points="1495.56 848.43 1495.56 932.71 1544.21 904.15 1544.21 820.32 1495.56 848.43" fill="#9494ff"/><polygon id="Window-85" data-name="Window" points="1498.48 851.83 1498.48 925.92 1541.27 900.81 1541.27 827.12 1498.48 851.83" fill="#d9d9ff"/><polygon id="Window_Frame_Down-85" data-name="Window_Frame_Down" points="1536.99 896.38 1541.43 900.81 1498.48 926.06 1498.48 918.97 1536.99 896.38" fill="#7575fc"/><polygon id="Window_Frame_Side-85" data-name="Window_Frame_Side" points="1536.99 829.49 1536.99 896.38 1541.43 900.81 1541.43 826.97 1536.99 829.49" fill="#8383ff"/></g><g id="Window_35-2" data-name="Window_35"><polygon id="Window_Frame-86" data-name="Window_Frame" points="1495.56 947.52 1495.56 1031.79 1544.21 1003.24 1544.21 919.42 1495.56 947.52" fill="#9494ff"/><polygon id="Window-86" data-name="Window" points="1498.48 950.91 1498.48 1025 1541.27 999.89 1541.27 926.2 1498.48 950.91" fill="#d9d9ff"/><polygon id="Window_Frame_Down-86" data-name="Window_Frame_Down" points="1536.99 995.47 1541.43 999.89 1498.48 1025.15 1498.48 1018.06 1536.99 995.47" fill="#7575fc"/><polygon id="Window_Frame_Side-86" data-name="Window_Frame_Side" points="1536.99 928.57 1536.99 995.47 1541.43 999.89 1541.43 926.07 1536.99 928.57" fill="#8383ff"/></g><g id="Window_36-2" data-name="Window_36"><polygon id="Window_Frame-87" data-name="Window_Frame" points="1559.43 513.55 1559.43 597.83 1608.09 569.27 1608.09 485.45 1559.43 513.55" fill="#9494ff"/><polygon id="Window-87" data-name="Window" points="1562.36 516.95 1562.36 591.04 1605.16 565.93 1605.16 492.23 1562.36 516.95" fill="#d9d9ff"/><polygon id="Window_Frame_Down-87" data-name="Window_Frame_Down" points="1600.88 561.5 1605.32 565.93 1562.36 591.18 1562.36 584.09 1600.88 561.5" fill="#7575fc"/><polygon id="Window_Frame_Side-87" data-name="Window_Frame_Side" points="1600.88 494.61 1600.88 561.5 1605.32 565.93 1605.32 492.1 1600.88 494.61" fill="#8383ff"/></g><g id="Window_37-2" data-name="Window_37"><polygon id="Window_Frame-88" data-name="Window_Frame" points="1559.43 612.64 1559.43 696.93 1608.09 668.37 1608.09 584.54 1559.43 612.64" fill="#9494ff"/><polygon id="Window-88" data-name="Window" points="1562.36 616.04 1562.36 690.14 1605.16 665.03 1605.16 591.33 1562.36 616.04" fill="#d9d9ff"/><polygon id="Window_Frame_Down-88" data-name="Window_Frame_Down" points="1600.88 660.59 1605.32 665.03 1562.36 690.28 1562.36 683.2 1600.88 660.59" fill="#7575fc"/><polygon id="Window_Frame_Side-88" data-name="Window_Frame_Side" points="1600.88 593.7 1600.88 660.59 1605.32 665.03 1605.32 591.19 1600.88 593.7" fill="#8383ff"/></g><g id="Window_38-2" data-name="Window_38"><polygon id="Window_Frame-89" data-name="Window_Frame" points="1559.43 711.74 1559.43 796.02 1608.09 767.46 1608.09 683.63 1559.43 711.74" fill="#9494ff"/><polygon id="Window-89" data-name="Window" points="1562.36 715.14 1562.36 789.23 1605.16 764.12 1605.16 690.43 1562.36 715.14" fill="#d9d9ff"/><polygon id="Window_Frame_Down-89" data-name="Window_Frame_Down" points="1600.88 759.69 1605.32 764.12 1562.36 789.38 1562.36 782.28 1600.88 759.69" fill="#7575fc"/><polygon id="Window_Frame_Side-89" data-name="Window_Frame_Side" points="1600.88 692.8 1600.88 759.69 1605.32 764.12 1605.32 690.29 1600.88 692.8" fill="#8383ff"/></g><g id="Window_39-2" data-name="Window_39"><polygon id="Window_Frame-90" data-name="Window_Frame" points="1559.43 810.84 1559.43 895.12 1608.09 866.57 1608.09 782.74 1559.43 810.84" fill="#9494ff"/><polygon id="Window-90" data-name="Window" points="1562.36 814.24 1562.36 888.33 1605.16 863.22 1605.16 789.53 1562.36 814.24" fill="#d9d9ff"/><polygon id="Window_Frame_Down-90" data-name="Window_Frame_Down" points="1600.88 858.79 1605.32 863.22 1562.36 888.48 1562.36 881.38 1600.88 858.79" fill="#7575fc"/><polygon id="Window_Frame_Side-90" data-name="Window_Frame_Side" points="1600.88 791.89 1600.88 858.79 1605.32 863.22 1605.32 789.39 1600.88 791.89" fill="#8383ff"/></g><g id="Window_40-2" data-name="Window_40"><polygon id="Window_Frame-91" data-name="Window_Frame" points="1559.43 909.95 1559.43 994.22 1608.09 965.66 1608.09 881.84 1559.43 909.95" fill="#9494ff"/><polygon id="Window-91" data-name="Window" points="1562.36 913.35 1562.36 987.44 1605.16 962.32 1605.16 888.64 1562.36 913.35" fill="#d9d9ff"/><polygon id="Window_Frame_Down-91" data-name="Window_Frame_Down" points="1600.88 957.89 1605.32 962.32 1562.36 987.58 1562.36 980.49 1600.88 957.89" fill="#7575fc"/><polygon id="Window_Frame_Side-91" data-name="Window_Frame_Side" points="1600.88 891 1600.88 957.89 1605.32 962.32 1605.32 888.49 1600.88 891" fill="#8383ff"/></g><g id="Window_41-2" data-name="Window_41"><polygon id="Window_Frame-92" data-name="Window_Frame" points="1624.47 477.01 1624.47 561.28 1673.13 532.72 1673.13 448.9 1624.47 477.01" fill="#9494ff"/><polygon id="Window-92" data-name="Window" points="1627.39 480.4 1627.39 554.5 1670.19 529.39 1670.19 455.7 1627.39 480.4" fill="#d9d9ff"/><polygon id="Window_Frame_Down-92" data-name="Window_Frame_Down" points="1665.91 524.96 1670.34 529.39 1627.39 554.64 1627.39 547.54 1665.91 524.96" fill="#7575fc"/><polygon id="Window_Frame_Side-92" data-name="Window_Frame_Side" points="1665.91 458.05 1665.91 524.96 1670.34 529.39 1670.34 455.55 1665.91 458.05" fill="#8383ff"/></g><g id="Window_42-2" data-name="Window_42"><polygon id="Window_Frame-93" data-name="Window_Frame" points="1624.47 576.1 1624.47 660.38 1673.13 631.82 1673.13 548 1624.47 576.1" fill="#9494ff"/><polygon id="Window-93" data-name="Window" points="1627.39 579.5 1627.39 653.59 1670.19 628.48 1670.19 554.79 1627.39 579.5" fill="#d9d9ff"/><polygon id="Window_Frame_Down-93" data-name="Window_Frame_Down" points="1665.91 624.05 1670.34 628.48 1627.39 653.73 1627.39 646.65 1665.91 624.05" fill="#7575fc"/><polygon id="Window_Frame_Side-93" data-name="Window_Frame_Side" points="1665.91 557.15 1665.91 624.05 1670.34 628.48 1670.34 554.65 1665.91 557.15" fill="#8383ff"/></g><g id="Window_43-2" data-name="Window_43"><polygon id="Window_Frame-94" data-name="Window_Frame" points="1624.47 675.2 1624.47 759.48 1673.13 730.92 1673.13 647.1 1624.47 675.2" fill="#9494ff"/><polygon id="Window-94" data-name="Window" points="1627.39 678.6 1627.39 752.7 1670.19 727.59 1670.19 653.89 1627.39 678.6" fill="#d9d9ff"/><polygon id="Window_Frame_Down-94" data-name="Window_Frame_Down" points="1665.91 723.14 1670.34 727.59 1627.39 752.83 1627.39 745.75 1665.91 723.14" fill="#7575fc"/><polygon id="Window_Frame_Side-94" data-name="Window_Frame_Side" points="1665.91 656.25 1665.91 723.14 1670.34 727.59 1670.34 653.75 1665.91 656.25" fill="#8383ff"/></g><g id="Window_44-2" data-name="Window_44"><polygon id="Window_Frame-95" data-name="Window_Frame" points="1624.47 774.29 1624.47 858.57 1673.13 830.01 1673.13 746.19 1624.47 774.29" fill="#9494ff"/><polygon id="Window-95" data-name="Window" points="1627.39 777.69 1627.39 851.78 1670.19 826.67 1670.19 752.98 1627.39 777.69" fill="#d9d9ff"/><polygon id="Window_Frame_Down-95" data-name="Window_Frame_Down" points="1665.91 822.25 1670.34 826.67 1627.39 851.92 1627.39 844.84 1665.91 822.25" fill="#7575fc"/><polygon id="Window_Frame_Side-95" data-name="Window_Frame_Side" points="1665.91 755.35 1665.91 822.25 1670.34 826.67 1670.34 752.85 1665.91 755.35" fill="#8383ff"/></g><g id="Window_45-2" data-name="Window_45"><polygon id="Window_Frame-96" data-name="Window_Frame" points="1624.47 873.38 1624.47 957.67 1673.13 929.11 1673.13 845.29 1624.47 873.38" fill="#9494ff"/><polygon id="Window-96" data-name="Window" points="1627.39 876.79 1627.39 950.87 1670.19 925.76 1670.19 852.07 1627.39 876.79" fill="#d9d9ff"/><polygon id="Window_Frame_Down-96" data-name="Window_Frame_Down" points="1665.91 921.33 1670.34 925.76 1627.39 951.02 1627.39 943.93 1665.91 921.33" fill="#7575fc"/><polygon id="Window_Frame_Side-96" data-name="Window_Frame_Side" points="1665.91 854.45 1665.91 921.33 1670.34 925.76 1670.34 851.94 1665.91 854.45" fill="#8383ff"/></g><g id="Window_46"><polygon id="Window_Frame-97" data-name="Window_Frame" points="1691.49 438.09 1691.49 522.37 1755.3 485.45 1755.3 401.63 1691.49 438.09" fill="#9494ff"/><polygon id="Window-97" data-name="Window" points="1694.43 441.48 1694.43 515.58 1752.37 482.11 1752.37 408.43 1694.43 441.48" fill="#d9d9ff"/><polygon id="Window_Frame_Down-97" data-name="Window_Frame_Down" points="1748.08 477.67 1752.52 482.11 1694.43 515.72 1694.43 508.63 1748.08 477.67" fill="#7575fc"/><polygon id="Window_Frame_Side-97" data-name="Window_Frame_Side" points="1748.08 410.79 1748.08 477.67 1752.52 482.11 1752.52 408.27 1748.08 410.79" fill="#8383ff"/></g><g id="Window_47"><polygon id="Window_Frame-98" data-name="Window_Frame" points="1691.49 537.18 1691.49 621.46 1755.3 584.55 1755.3 500.73 1691.49 537.18" fill="#9494ff"/><polygon id="Window-98" data-name="Window" points="1694.43 540.57 1694.43 614.67 1752.37 581.21 1752.37 507.52 1694.43 540.57" fill="#d9d9ff"/><polygon id="Window_Frame_Down-98" data-name="Window_Frame_Down" points="1748.08 576.77 1752.52 581.21 1694.43 614.83 1694.43 607.72 1748.08 576.77" fill="#7575fc"/><polygon id="Window_Frame_Side-98" data-name="Window_Frame_Side" points="1748.08 509.88 1748.08 576.77 1752.52 581.21 1752.52 507.38 1748.08 509.88" fill="#8383ff"/></g><g id="Window_48"><polygon id="Window_Frame-99" data-name="Window_Frame" points="1691.49 636.28 1691.49 720.56 1755.3 683.64 1755.3 599.83 1691.49 636.28" fill="#9494ff"/><polygon id="Window-99" data-name="Window" points="1694.43 639.67 1694.43 713.77 1752.37 680.31 1752.37 606.62 1694.43 639.67" fill="#d9d9ff"/><polygon id="Window_Frame_Down-99" data-name="Window_Frame_Down" points="1748.08 675.88 1752.52 680.31 1694.43 713.92 1694.43 706.83 1748.08 675.88" fill="#7575fc"/><polygon id="Window_Frame_Side-99" data-name="Window_Frame_Side" points="1748.08 608.98 1748.08 675.88 1752.52 680.31 1752.52 606.47 1748.08 608.98" fill="#8383ff"/></g><g id="Window_49"><polygon id="Window_Frame-100" data-name="Window_Frame" points="1691.49 735.37 1691.49 819.65 1755.3 782.74 1755.3 698.92 1691.49 735.37" fill="#9494ff"/><polygon id="Window-100" data-name="Window" points="1694.43 738.76 1694.43 812.86 1752.37 779.4 1752.37 705.71 1694.43 738.76" fill="#d9d9ff"/><polygon id="Window_Frame_Down-100" data-name="Window_Frame_Down" points="1748.08 774.96 1752.52 779.4 1694.43 813.02 1694.43 805.91 1748.08 774.96" fill="#7575fc"/><polygon id="Window_Frame_Side-100" data-name="Window_Frame_Side" points="1748.08 708.07 1748.08 774.96 1752.52 779.4 1752.52 705.57 1748.08 708.07" fill="#8383ff"/></g><g id="Window_50"><polygon id="Window_Frame-101" data-name="Window_Frame" points="1691.49 834.48 1691.49 918.75 1755.3 881.83 1755.3 798.02 1691.49 834.48" fill="#9494ff"/><polygon id="Window-101" data-name="Window" points="1694.43 837.87 1694.43 911.97 1752.37 878.5 1752.37 804.82 1694.43 837.87" fill="#d9d9ff"/><polygon id="Window_Frame_Down-101" data-name="Window_Frame_Down" points="1748.08 874.06 1752.52 878.5 1694.43 912.11 1694.43 905.01 1748.08 874.06" fill="#7575fc"/><polygon id="Window_Frame_Side-101" data-name="Window_Frame_Side" points="1748.08 807.18 1748.08 874.06 1752.52 878.5 1752.52 804.67 1748.08 807.18" fill="#8383ff"/></g><g id="Window_51"><g id="Big_Window"><polygon id="Window_Frame-102" data-name="Window_Frame" points="1239.73 1263.3 1239.73 1434.63 1288.4 1406.57 1288.4 1235.2 1239.73 1263.3" fill="#9494ff"/><polygon id="Window-102" data-name="Window" points="1242.67 1266.69 1242.67 1428.35 1285.45 1403.23 1285.45 1241.99 1242.67 1266.69" fill="#d9d9ff"/><polygon id="Window_Frame_Down-102" data-name="Window_Frame_Down" points="1281.18 1398.8 1285.61 1403.23 1242.67 1428.48 1242.67 1421.39 1281.18 1398.8" fill="#7575fc"/><polygon id="Window_Frame_Side-102" data-name="Window_Frame_Side" points="1281.18 1244.36 1281.18 1398.8 1285.61 1403.23 1285.61 1241.84 1281.18 1244.36" fill="#8383ff"/></g><g id="Small_Window"><polygon id="Window_Frame-103" data-name="Window_Frame" points="1239.73 1263.3 1239.73 1327.63 1288.4 1299.06 1288.4 1235.2 1239.73 1263.3" fill="#9494ff"/><polygon id="Window-103" data-name="Window" points="1242.67 1266.69 1242.67 1320.83 1285.45 1295.72 1285.45 1241.99 1242.67 1266.69" fill="#d9d9ff"/><polygon id="Window_Frame_Down-103" data-name="Window_Frame_Down" points="1281.18 1291.29 1285.61 1295.72 1242.67 1320.97 1242.67 1313.89 1281.18 1291.29" fill="#7575fc"/><polygon id="Window_Frame_Side-103" data-name="Window_Frame_Side" points="1281.18 1244.36 1281.18 1291.29 1285.61 1295.72 1285.61 1241.84 1281.18 1244.36" fill="#8383ff"/></g></g><g id="Window_52"><g id="Big_Window-2" data-name="Big_Window"><polygon id="Window_Frame-104" data-name="Window_Frame" points="1302.49 1227.43 1302.49 1398.42 1351.17 1370.7 1351.17 1199.31 1302.49 1227.43" fill="#9494ff"/><polygon id="Window-104" data-name="Window" points="1305.43 1230.82 1305.43 1392.45 1348.21 1367.35 1348.21 1206.11 1305.43 1230.82" fill="#d9d9ff"/><polygon id="Window_Frame_Down-104" data-name="Window_Frame_Down" points="1343.95 1362.92 1348.37 1367.35 1305.43 1392.62 1305.43 1385.51 1343.95 1362.92" fill="#7575fc"/><polygon id="Window_Frame_Side-104" data-name="Window_Frame_Side" points="1343.95 1208.48 1343.95 1362.92 1348.37 1367.35 1348.37 1205.97 1343.95 1208.48" fill="#8383ff"/></g><g id="Small_Window-2" data-name="Small_Window"><polygon id="Window_Frame-105" data-name="Window_Frame" points="1302.49 1227.43 1302.49 1291.75 1351.17 1263.18 1351.17 1199.31 1302.49 1227.43" fill="#9494ff"/><polygon id="Window-105" data-name="Window" points="1305.43 1230.82 1305.43 1284.96 1348.21 1259.86 1348.21 1206.11 1305.43 1230.82" fill="#d9d9ff"/><polygon id="Window_Frame_Down-105" data-name="Window_Frame_Down" points="1343.95 1255.41 1348.37 1259.86 1305.43 1285.11 1305.43 1278.01 1343.95 1255.41" fill="#7575fc"/><polygon id="Window_Frame_Side-105" data-name="Window_Frame_Side" points="1343.95 1208.48 1343.95 1255.41 1348.37 1259.86 1348.37 1205.97 1343.95 1208.48" fill="#8383ff"/></g></g><g id="Window_53"><g id="Big_Window-3" data-name="Big_Window"><polygon id="Window_Frame-106" data-name="Window_Frame" points="1366.67 1190.09 1366.67 1361.42 1415.34 1333.36 1415.34 1162 1366.67 1190.09" fill="#9494ff"/><polygon id="Window-106" data-name="Window" points="1369.61 1193.49 1369.61 1355.14 1412.4 1330.03 1412.4 1168.78 1369.61 1193.49" fill="#d9d9ff"/><polygon id="Window_Frame_Down-106" data-name="Window_Frame_Down" points="1408.12 1325.6 1412.56 1330.03 1369.61 1355.28 1369.61 1348.18 1408.12 1325.6" fill="#7575fc"/><polygon id="Window_Frame_Side-106" data-name="Window_Frame_Side" points="1408.12 1171.14 1408.12 1325.6 1412.56 1330.03 1412.56 1168.64 1408.12 1171.14" fill="#8383ff"/></g><g id="Small_Window-3" data-name="Small_Window"><polygon id="Window_Frame-107" data-name="Window_Frame" points="1366.67 1190.09 1366.67 1254.42 1415.34 1225.86 1415.34 1162 1366.67 1190.09" fill="#9494ff"/><polygon id="Window-107" data-name="Window" points="1369.61 1193.49 1369.61 1247.63 1412.4 1222.53 1412.4 1168.78 1369.61 1193.49" fill="#d9d9ff"/><polygon id="Window_Frame_Down-107" data-name="Window_Frame_Down" points="1408.12 1218.08 1412.56 1222.53 1369.61 1247.78 1369.61 1240.67 1408.12 1218.08" fill="#7575fc"/><polygon id="Window_Frame_Side-107" data-name="Window_Frame_Side" points="1408.12 1171.14 1408.12 1218.08 1412.56 1222.53 1412.56 1168.64 1408.12 1171.14" fill="#8383ff"/></g></g><g id="Window_54"><g id="Big_Window-4" data-name="Big_Window"><polygon id="Window_Frame-108" data-name="Window_Frame" points="1431.17 1152.74 1431.17 1237.01 1479.84 1208.46 1479.84 1124.62 1431.17 1152.74" fill="#9494ff"/><polygon id="Window-108" data-name="Window" points="1434.11 1156.12 1434.11 1230.21 1476.88 1205.1 1476.88 1131.42 1434.11 1156.12" fill="#d9d9ff"/><polygon id="Window_Frame_Down-108" data-name="Window_Frame_Down" points="1472.63 1200.68 1477.05 1205.1 1434.11 1230.37 1434.11 1223.28 1472.63 1200.68" fill="#7575fc"/><polygon id="Window_Frame_Side-108" data-name="Window_Frame_Side" points="1472.63 1133.78 1472.63 1200.68 1477.05 1205.1 1477.05 1131.28 1472.63 1133.78" fill="#8383ff"/></g><g id="Small_Window-4" data-name="Small_Window"><polygon id="Window_Frame-109" data-name="Window_Frame" points="1431.17 1248.66 1431.17 1324.32 1479.84 1296.14 1479.84 1220.56 1431.17 1248.66" fill="#9494ff"/><polygon id="Window-109" data-name="Window" points="1434.11 1252.05 1434.11 1317.53 1476.88 1292.42 1476.88 1227.35 1434.11 1252.05" fill="#d9d9ff"/><polygon id="Window_Frame_Down-109" data-name="Window_Frame_Down" points="1472.63 1287.98 1477.05 1292.42 1434.11 1317.66 1434.11 1310.57 1472.63 1287.98" fill="#7575fc"/><polygon id="Window_Frame_Side-109" data-name="Window_Frame_Side" points="1472.63 1229.71 1472.63 1287.98 1477.05 1292.42 1477.05 1227.2 1472.63 1229.71" fill="#8383ff"/></g></g><g id="Window_55"><g id="Big_Window-5" data-name="Big_Window"><polygon id="Window_Frame-110" data-name="Window_Frame" points="1492.61 1117.65 1492.61 1201.94 1541.28 1173.39 1541.28 1089.56 1492.61 1117.65" fill="#9494ff"/><polygon id="Window-110" data-name="Window" points="1495.55 1121.05 1495.55 1195.14 1538.33 1170.04 1538.33 1096.35 1495.55 1121.05" fill="#d9d9ff"/><polygon id="Window_Frame_Down-110" data-name="Window_Frame_Down" points="1534.06 1165.63 1538.49 1170.04 1495.55 1195.3 1495.55 1188.21 1534.06 1165.63" fill="#7575fc"/><polygon id="Window_Frame_Side-110" data-name="Window_Frame_Side" points="1534.06 1098.73 1534.06 1165.63 1538.49 1170.04 1538.49 1096.22 1534.06 1098.73" fill="#8383ff"/></g><g id="Small_Window-5" data-name="Small_Window"><polygon id="Window_Frame-111" data-name="Window_Frame" points="1492.61 1213.59 1492.61 1289.25 1541.28 1260.69 1541.28 1185.5 1492.61 1213.59" fill="#9494ff"/><polygon id="Window-111" data-name="Window" points="1495.55 1217 1495.55 1282.47 1538.33 1257.36 1538.33 1192.28 1495.55 1217" fill="#d9d9ff"/><polygon id="Window_Frame_Down-111" data-name="Window_Frame_Down" points="1534.06 1252.92 1538.49 1257.36 1495.55 1282.61 1495.55 1275.51 1534.06 1252.92" fill="#7575fc"/><polygon id="Window_Frame_Side-111" data-name="Window_Frame_Side" points="1534.06 1194.66 1534.06 1252.92 1538.49 1257.36 1538.49 1192.14 1534.06 1194.66" fill="#8383ff"/></g></g></g><g id="Doors-2" data-name="Doors"><g id="Door_1-6" data-name="Door_1"><g id="Door_1-7" data-name="Door_1"><polygon id="Door_Frame-9" data-name="Door_Frame" points="1168.07 1302.98 1168.07 1475.46 1225.11 1442.77 1225.11 1270.28 1168.07 1302.98" fill="#9494ff"/><polygon id="Door-9" data-name="Door" points="1171.01 1305.73 1171.01 1468.66 1222.18 1439.4 1222.18 1277.06 1171.01 1305.73" fill="#d9d9ff"/><polygon id="Door_Frame_Down-9" data-name="Door_Frame_Down" points="1217.89 1434.98 1222.32 1439.4 1171.01 1468.83 1171.01 1461.73 1217.89 1434.98" fill="#7575fc"/><polygon id="Door_Frame_Side-9" data-name="Door_Frame_Side" points="1217.89 1279.59 1217.89 1434.98 1222.32 1439.4 1222.32 1277.08 1217.89 1279.59" fill="#8383ff"/></g><g id="Door_2-6" data-name="Door_2"><polygon id="Door_Frame-10" data-name="Door_Frame" points="1111.04 1335.04 1111.04 1508.54 1168.07 1475.64 1168.07 1302.98 1111.04 1335.04" fill="#9494ff"/><polygon id="Door-10" data-name="Door" points="1113.96 1338.44 1113.96 1501.75 1165.13 1472.29 1165.13 1309.78 1113.96 1338.44" fill="#d9d9ff"/><polygon id="Door_Frame_Down-10" data-name="Door_Frame_Down" points="1160.86 1467.86 1165.27 1472.29 1113.96 1501.89 1113.96 1494.8 1160.86 1467.86" fill="#7575fc"/><polygon id="Door_Frame_Side-10" data-name="Door_Frame_Side" points="1160.86 1312.29 1160.86 1467.86 1165.27 1472.29 1165.27 1309.78 1160.86 1312.29" fill="#8383ff"/></g><g id="Window-112" data-name="Window"><polygon id="Window_Frame-112" data-name="Window_Frame" points="1111.04 1335.43 1111.04 1375.38 1225.11 1309.78 1225.11 1270.28 1111.04 1335.43" fill="#9494ff"/><polygon id="Window-113" data-name="Window" points="1113.96 1338.83 1113.96 1368.58 1222.18 1306.43 1222.18 1277.06 1113.96 1338.83" fill="#d9d9ff"/><polygon id="Window_Frame_Down-112" data-name="Window_Frame_Down" points="1222.19 1299.4 1222.32 1306.43 1113.96 1368.75 1113.96 1361.64 1222.19 1299.4" fill="#7575fc"/><polygon id="Window_Frame_Side-112" data-name="Window_Frame_Side" points="1217.89 1279.59 1217.89 1301.99 1222.32 1306.43 1222.32 1277.08 1217.89 1279.59" fill="#8383ff"/></g></g><g id="Door_2-7" data-name="Door_2"><g id="Door_1-8" data-name="Door_1"><polygon id="Door_Frame-11" data-name="Door_Frame" points="1562.39 1074.84 1562.39 1248.72 1661.42 1191.73 1661.42 1017.18 1562.39 1074.84" fill="#9494ff"/><polygon id="Door-11" data-name="Door" points="1565.32 1078.25 1565.32 1241.94 1658.47 1188.42 1658.47 1023.97 1565.32 1078.25" fill="#d9d9ff"/><polygon id="Door_Frame_Down-11" data-name="Door_Frame_Down" points="1654.19 1183.96 1658.64 1188.42 1565.32 1242.08 1565.32 1234.98 1654.19 1183.96" fill="#7575fc"/><polygon id="Door_Frame_Side-11" data-name="Door_Frame_Side" points="1654.19 1026.35 1654.19 1183.96 1658.64 1188.42 1658.64 1023.83 1654.19 1026.35" fill="#8383ff"/></g><g id="Door_2-8" data-name="Door_2"><polygon id="Door_Frame-12" data-name="Door_Frame" points="1661.05 1016.96 1661.05 1191.98 1760.09 1135.03 1760.09 959.3 1661.05 1016.96" fill="#9494ff"/><polygon id="Door-12" data-name="Door" points="1663.98 1020.35 1663.98 1185.18 1757.15 1131.7 1757.15 966.09 1663.98 1020.35" fill="#d9d9ff"/><polygon id="Door_Frame_Down-12" data-name="Door_Frame_Down" points="1752.87 1127.25 1757.3 1131.7 1663.98 1185.32 1663.98 1178.23 1752.87 1127.25" fill="#7575fc"/><polygon id="Door_Frame_Side-12" data-name="Door_Frame_Side" points="1752.87 968.46 1752.87 1127.25 1757.3 1131.7 1757.3 965.96 1752.87 968.46" fill="#8383ff"/></g></g></g></g><g id="Roof"><polygon id="Roof_Outer" points="1498.99 122.46 1071.96 370.41 431 0 110.17 185.07 815.54 594.15 708.69 652.35 942.88 791.42 1799.41 295.93 1498.99 122.46" fill="#a6a6ff"/><polygon id="Roof_Inner" points="1757.34 295.95 943 767.01 751.46 653.35 858.41 594.66 151.93 185.24 430.99 24.31 1071.98 394.74 1499 146.79 1757.34 295.95" fill="#b3b3ff"/><polygon id="Roof_Corner_Front" points="858.41 594.66 858.41 618.33 772.59 665.87 751.46 653.35 855.68 596.17 858.41 594.66" fill="#99f"/><polygon id="Roof_Corner" points="1757.34 295.95 1736.23 308.14 1499 171.18 1499 171.2 1498.96 171.18 1071.96 419.12 430.99 48.69 430.98 48.69 173.02 197.44 151.93 185.24 430.99 24.31 1071.13 394.1 1499 146.79 1757.34 295.95" fill="#99f"/><g id="Foor_Part_1"><polygon id="Above" points="878.62 255.81 682.12 367.86 1006.79 553.29 1199.88 440.98 878.62 255.81" fill="#d2d2ff"/><polygon id="Front-2" data-name="Front" points="1006.79 553.29 1006.79 649.36 1199.88 536.53 1199.88 440.98 1006.79 553.29" fill="#a6a6ff"/><polygon id="Side-2" data-name="Side" points="682.12 367.88 1006.79 553.29 1006.79 649.36 682.12 464.8 682.12 367.88" fill="#99f"/></g><g id="Roof_Part_2"><polygon id="Above-2" data-name="Above" points="1567.16 231.97 1285.89 392.64 1350.23 430.98 1629.42 269.3 1567.16 231.97" fill="#d2d2ff"/><polygon id="Front-3" data-name="Front" points="1350.23 430.98 1350.23 478.86 1629.42 318.29 1629.42 269.3 1350.23 430.98" fill="#a6a6ff"/><polygon id="Side-3" data-name="Side" points="1285.89 392.64 1350.23 430.82 1350.23 478.86 1285.89 441.54 1285.89 392.64" fill="#99f"/></g></g></g></g></g></svg>